<mxfile host="app.diagrams.net" modified="2021-01-05T14:05:26.439Z" agent="5.0 (Windows NT 10.0; Win64; x64) AppleWebKit/537.36 (KHTML, like Gecko) Chrome/87.0.4280.88 Safari/537.36 Edg/87.0.664.66" etag="Qs4226CbRu_5vM1oEfsd" version="14.1.8" type="github">
  <diagram id="yDZNZEaYdnecjmXSINiD" name="Page-1">
    <mxGraphModel dx="1204" dy="1066" grid="1" gridSize="10" guides="1" tooltips="1" connect="1" arrows="1" fold="1" page="1" pageScale="1" pageWidth="827" pageHeight="1169" math="0" shadow="0">
      <root>
        <mxCell id="0" />
        <mxCell id="1" parent="0" />
        <mxCell id="t55zHzIVMXnwhdZF8sP2-8" value="" style="endArrow=oval;html=1;startArrow=none;startFill=0;strokeColor=#5e5e5e;strokeWidth=1;endFill=0;" parent="1" edge="1">
          <mxGeometry width="50" height="50" relative="1" as="geometry">
            <mxPoint x="2500.1800000000003" y="910" as="sourcePoint" />
            <mxPoint x="2546.1800000000003" y="910" as="targetPoint" />
            <Array as="points">
              <mxPoint x="2514.1800000000003" y="910" />
            </Array>
          </mxGeometry>
        </mxCell>
        <mxCell id="t55zHzIVMXnwhdZF8sP2-9" value="nsfw" style="edgeLabel;html=1;align=center;verticalAlign=middle;resizable=0;points=[];fontSize=17;fontStyle=1;autosize=0;resizeWidth=0;" parent="t55zHzIVMXnwhdZF8sP2-8" vertex="1" connectable="0">
          <mxGeometry x="-0.4925" relative="1" as="geometry">
            <mxPoint x="102.33000000000001" y="-1.02" as="offset" />
          </mxGeometry>
        </mxCell>
        <UserObject label="(0,N)" lucidchartObjectId="5Z11jnNYv.fa" id="t55zHzIVMXnwhdZF8sP2-10">
          <mxCell style="html=1;overflow=block;blockSpacing=1;whiteSpace=wrap;strokeColor=none;fillColor=none;whiteSpace=wrap;fontSize=18;fontColor=#333333;align=center;spacing=0;strokeOpacity=100;fillOpacity=100;rounded=1;absoluteArcSize=1;arcSize=7;strokeWidth=2;" parent="1" vertex="1">
            <mxGeometry x="1754.18" y="767" width="42" height="25" as="geometry" />
          </mxCell>
        </UserObject>
        <UserObject label="Utente" lucidchartObjectId="5Z11nYX659Pr" id="t55zHzIVMXnwhdZF8sP2-11">
          <mxCell style="html=1;overflow=block;blockSpacing=1;whiteSpace=wrap;;whiteSpace=wrap;fontSize=27;fontColor=#333333;align=center;spacing=7;strokeColor=#5e5e5e;strokeOpacity=100;fillOpacity=100;rounded=1;absoluteArcSize=1;arcSize=7;fillColor=#ffc374;strokeWidth=2;" parent="1" vertex="1">
            <mxGeometry x="1700.18" y="897" width="173" height="145" as="geometry" />
          </mxCell>
        </UserObject>
        <UserObject label="Sub" lucidchartObjectId="5Z11T_onsmou" id="t55zHzIVMXnwhdZF8sP2-12">
          <mxCell style="html=1;overflow=block;blockSpacing=1;whiteSpace=wrap;;whiteSpace=wrap;fontSize=27;fontColor=#333333;align=center;spacing=7;strokeColor=#5e5e5e;strokeOpacity=100;fillOpacity=100;rounded=1;absoluteArcSize=1;arcSize=7;fillColor=#ffc374;strokeWidth=2;" parent="1" vertex="1">
            <mxGeometry x="1733.18" y="354" width="139" height="126" as="geometry" />
          </mxCell>
        </UserObject>
        <UserObject label="Post" lucidchartObjectId="5Z11ZcP1FELY" id="t55zHzIVMXnwhdZF8sP2-13">
          <mxCell style="html=1;overflow=block;blockSpacing=1;whiteSpace=wrap;;whiteSpace=wrap;fontSize=27;fontColor=#333333;align=center;spacing=7;strokeColor=#5e5e5e;strokeOpacity=100;fillOpacity=100;rounded=1;absoluteArcSize=1;arcSize=7;fillColor=#ffc374;strokeWidth=2;" parent="1" vertex="1">
            <mxGeometry x="2361.1800000000003" y="805" width="139" height="126" as="geometry" />
          </mxCell>
        </UserObject>
        <UserObject label="Commento" lucidchartObjectId="5Z11oSnabF5H" id="t55zHzIVMXnwhdZF8sP2-14">
          <mxCell style="html=1;overflow=block;blockSpacing=1;whiteSpace=wrap;;whiteSpace=wrap;fontSize=27;fontColor=#333333;align=center;spacing=7;strokeColor=#5e5e5e;strokeOpacity=100;fillOpacity=100;rounded=1;absoluteArcSize=1;arcSize=7;fillColor=#ffc374;strokeWidth=2;" parent="1" vertex="1">
            <mxGeometry x="2149.1800000000003" y="1219" width="139" height="126" as="geometry" />
          </mxCell>
        </UserObject>
        <UserObject label="Creazione" lucidchartObjectId="5Z11Syj31W8f" id="t55zHzIVMXnwhdZF8sP2-15">
          <mxCell style="html=1;overflow=block;blockSpacing=1;whiteSpace=wrap;rhombus;whiteSpace=wrap;fontSize=19;fontColor=#333333;align=center;spacing=3;strokeColor=#5e5e5e;strokeOpacity=100;fillOpacity=100;rounded=1;absoluteArcSize=1;arcSize=7;fillColor=#ffeca9;strokeWidth=2;" parent="1" vertex="1">
            <mxGeometry x="1674.18" y="679.5" width="139" height="72" as="geometry" />
          </mxCell>
        </UserObject>
        <UserObject label="VotoPost" lucidchartObjectId="5Z11PgHP7o6r" id="t55zHzIVMXnwhdZF8sP2-16">
          <mxCell style="html=1;overflow=block;blockSpacing=1;whiteSpace=wrap;rhombus;whiteSpace=wrap;fontSize=19;fontColor=#333333;align=center;spacing=3;strokeColor=#5e5e5e;strokeOpacity=100;fillOpacity=100;rounded=1;absoluteArcSize=1;arcSize=7;fillColor=#ffeca9;strokeWidth=2;" parent="1" vertex="1">
            <mxGeometry x="1956.18" y="882" width="173" height="72" as="geometry" />
          </mxCell>
        </UserObject>
        <UserObject label="Scrive" lucidchartObjectId="5Z11AduAvgHk" id="t55zHzIVMXnwhdZF8sP2-17">
          <mxCell style="html=1;overflow=block;blockSpacing=1;whiteSpace=wrap;rhombus;whiteSpace=wrap;fontSize=19;fontColor=#333333;align=center;spacing=3;strokeColor=#5e5e5e;strokeOpacity=100;fillOpacity=100;rounded=1;absoluteArcSize=1;arcSize=7;fillColor=#ffeca9;strokeWidth=2;" parent="1" vertex="1">
            <mxGeometry x="1956.18" y="970" width="173" height="72" as="geometry" />
          </mxCell>
        </UserObject>
        <UserObject label="" lucidchartObjectId="5Z11izssXkuJ" id="t55zHzIVMXnwhdZF8sP2-18">
          <mxCell style="html=1;jettySize=18;whiteSpace=wrap;fontSize=11;strokeColor=#5E5E5E;rounded=1;arcSize=12;startArrow=none;;endArrow=block;endFill=1;;exitX=0.006;exitY=0.5;exitPerimeter=0;entryX=1;entryY=0.75;entryDx=0;entryDy=0;" parent="1" source="t55zHzIVMXnwhdZF8sP2-17" target="t55zHzIVMXnwhdZF8sP2-11" edge="1">
            <mxGeometry width="100" height="100" relative="1" as="geometry" />
          </mxCell>
        </UserObject>
        <UserObject label="" lucidchartObjectId="5Z11i5Vyu13C" id="t55zHzIVMXnwhdZF8sP2-19">
          <mxCell style="html=1;jettySize=18;whiteSpace=wrap;fontSize=11;strokeColor=#5E5E5E;rounded=1;arcSize=12;edgeStyle=orthogonalEdgeStyle;startArrow=none;;endArrow=block;endFill=1;;exitX=0.006;exitY=0.5;exitPerimeter=0;entryX=1.005;entryY=0.146;entryPerimeter=0;" parent="1" source="t55zHzIVMXnwhdZF8sP2-16" target="t55zHzIVMXnwhdZF8sP2-11" edge="1">
            <mxGeometry width="100" height="100" relative="1" as="geometry">
              <Array as="points" />
            </mxGeometry>
          </mxCell>
        </UserObject>
        <UserObject label="Comprende" lucidchartObjectId="5Z11DL2pK7IQ" id="t55zHzIVMXnwhdZF8sP2-20">
          <mxCell style="html=1;overflow=block;blockSpacing=1;whiteSpace=wrap;rhombus;whiteSpace=wrap;fontSize=19;fontColor=#333333;align=center;spacing=3;strokeColor=#5e5e5e;strokeOpacity=100;fillOpacity=100;rounded=1;absoluteArcSize=1;arcSize=7;fillColor=#ffeca9;strokeWidth=2;" parent="1" vertex="1">
            <mxGeometry x="2021.18" y="391" width="139" height="72" as="geometry" />
          </mxCell>
        </UserObject>
        <UserObject label="Riceve" lucidchartObjectId="5Z11WP3Co58E" id="t55zHzIVMXnwhdZF8sP2-21">
          <mxCell style="html=1;overflow=block;blockSpacing=1;whiteSpace=wrap;rhombus;whiteSpace=wrap;fontSize=19;fontColor=#333333;align=center;spacing=3;strokeColor=#5e5e5e;strokeOpacity=100;fillOpacity=100;rounded=1;absoluteArcSize=1;arcSize=7;fillColor=#ffeca9;strokeWidth=2;" parent="1" vertex="1">
            <mxGeometry x="2154.1800000000003" y="1056" width="139" height="72" as="geometry" />
          </mxCell>
        </UserObject>
        <UserObject label="" lucidchartObjectId="5Z11U962jJ6L" id="t55zHzIVMXnwhdZF8sP2-22">
          <mxCell style="html=1;jettySize=18;whiteSpace=wrap;fontSize=11;strokeColor=#5E5E5E;rounded=1;arcSize=12;edgeStyle=orthogonalEdgeStyle;startArrow=none;;endArrow=block;endFill=1;;exitX=0.5;exitY=0.002;exitPerimeter=0;entryX=0.244;entryY=1.007;entryPerimeter=0;" parent="1" source="t55zHzIVMXnwhdZF8sP2-21" target="t55zHzIVMXnwhdZF8sP2-13" edge="1">
            <mxGeometry width="100" height="100" relative="1" as="geometry">
              <Array as="points">
                <mxPoint x="2224.1800000000003" y="1006" />
                <mxPoint x="2395.1800000000003" y="1006" />
              </Array>
            </mxGeometry>
          </mxCell>
        </UserObject>
        <UserObject label="" lucidchartObjectId="5Z11_2pyLblf" id="t55zHzIVMXnwhdZF8sP2-23">
          <mxCell style="html=1;jettySize=18;whiteSpace=wrap;fontSize=11;strokeColor=#5E5E5E;rounded=1;arcSize=12;startArrow=none;;endArrow=block;endFill=1;;exitX=0.5;exitY=0.998;exitPerimeter=0;" parent="1" source="t55zHzIVMXnwhdZF8sP2-21" edge="1">
            <mxGeometry width="100" height="100" relative="1" as="geometry">
              <mxPoint x="2224.1800000000003" y="1217.9999999999995" as="targetPoint" />
            </mxGeometry>
          </mxCell>
        </UserObject>
        <UserObject label="VotoCommento" lucidchartObjectId="5Z11uRqC.l_0" id="t55zHzIVMXnwhdZF8sP2-24">
          <mxCell style="html=1;overflow=block;blockSpacing=1;whiteSpace=wrap;rhombus;whiteSpace=wrap;fontSize=19;fontColor=#333333;align=center;spacing=3;strokeColor=#5e5e5e;strokeOpacity=100;fillOpacity=100;rounded=1;absoluteArcSize=1;arcSize=7;fillColor=#ffeca9;strokeWidth=2;" parent="1" vertex="1">
            <mxGeometry x="1919.18" y="1200" width="190" height="72" as="geometry" />
          </mxCell>
        </UserObject>
        <UserObject label="Aggiunta" lucidchartObjectId="5Z11qQdxa9NC" id="t55zHzIVMXnwhdZF8sP2-25">
          <mxCell style="html=1;overflow=block;blockSpacing=1;whiteSpace=wrap;rhombus;whiteSpace=wrap;fontSize=19;fontColor=#333333;align=center;spacing=3;strokeColor=#5e5e5e;strokeOpacity=100;fillOpacity=100;rounded=1;absoluteArcSize=1;arcSize=7;fillColor=#ffeca9;strokeWidth=2;" parent="1" vertex="1">
            <mxGeometry x="1960.18" y="1276.5" width="142" height="72" as="geometry" />
          </mxCell>
        </UserObject>
        <UserObject label="" lucidchartObjectId="5Z11gAFnR2~T" id="t55zHzIVMXnwhdZF8sP2-26">
          <mxCell style="html=1;jettySize=18;whiteSpace=wrap;fontSize=11;strokeColor=#5E5E5E;rounded=1;arcSize=12;edgeStyle=orthogonalEdgeStyle;startArrow=none;;endArrow=block;endFill=1;;exitX=0.003;exitY=0.5;exitPerimeter=0;" parent="1" edge="1">
            <mxGeometry width="100" height="100" relative="1" as="geometry">
              <Array as="points">
                <mxPoint x="1834.18" y="1311" />
              </Array>
              <mxPoint x="1834.18" y="1042" as="targetPoint" />
              <mxPoint x="1960.6059999999995" y="1311.5" as="sourcePoint" />
            </mxGeometry>
          </mxCell>
        </UserObject>
        <UserObject label="" lucidchartObjectId="5Z11UxAj89NH" id="t55zHzIVMXnwhdZF8sP2-27">
          <mxCell style="html=1;jettySize=18;whiteSpace=wrap;fontSize=11;strokeColor=#5E5E5E;rounded=1;arcSize=12;startArrow=none;;endArrow=block;endFill=1;;exitX=0.997;exitY=0.5;exitPerimeter=0;entryX=-0.003;entryY=0.737;entryDx=0;entryDy=0;entryPerimeter=0;" parent="1" source="t55zHzIVMXnwhdZF8sP2-25" target="t55zHzIVMXnwhdZF8sP2-14" edge="1">
            <mxGeometry width="100" height="100" relative="1" as="geometry">
              <mxPoint x="2149.1800000000003" y="1328" as="targetPoint" />
            </mxGeometry>
          </mxCell>
        </UserObject>
        <UserObject label="Risposta" lucidchartObjectId="5Z110mMXI5NF" id="t55zHzIVMXnwhdZF8sP2-28">
          <mxCell style="html=1;overflow=block;blockSpacing=1;whiteSpace=wrap;rhombus;whiteSpace=wrap;fontSize=19;fontColor=#333333;align=center;spacing=3;strokeColor=#5e5e5e;strokeOpacity=100;fillOpacity=100;rounded=1;absoluteArcSize=1;arcSize=7;fillColor=#ffeca9;strokeWidth=2;" parent="1" vertex="1">
            <mxGeometry x="2010.18" y="1366" width="139" height="75" as="geometry" />
          </mxCell>
        </UserObject>
        <UserObject label="" lucidchartObjectId="5Z11sGWukUJt" id="t55zHzIVMXnwhdZF8sP2-29">
          <mxCell style="html=1;jettySize=18;whiteSpace=wrap;fontSize=11;strokeColor=#5E5E5E;rounded=1;arcSize=12;edgeStyle=orthogonalEdgeStyle;startArrow=none;;endArrow=block;endFill=1;;exitX=1;exitY=0.5;entryX=0.25;entryY=1;exitDx=0;exitDy=0;entryDx=0;entryDy=0;" parent="1" source="t55zHzIVMXnwhdZF8sP2-28" target="t55zHzIVMXnwhdZF8sP2-14" edge="1">
            <mxGeometry width="100" height="100" relative="1" as="geometry">
              <Array as="points" />
            </mxGeometry>
          </mxCell>
        </UserObject>
        <UserObject label="Media" lucidchartObjectId="5Z11tEEgMzp." id="t55zHzIVMXnwhdZF8sP2-30">
          <mxCell style="html=1;overflow=block;blockSpacing=1;whiteSpace=wrap;;whiteSpace=wrap;fontSize=27;fontColor=#333333;align=center;spacing=3;strokeColor=#5e5e5e;strokeOpacity=100;fillOpacity=100;rounded=1;absoluteArcSize=1;arcSize=7;fillColor=#ffc374;strokeWidth=2;" parent="1" vertex="1">
            <mxGeometry x="3002.0000000000005" y="799" width="139" height="126" as="geometry" />
          </mxCell>
        </UserObject>
        <UserObject label="Contiene" lucidchartObjectId="5Z11jG~nFGgs" id="t55zHzIVMXnwhdZF8sP2-31">
          <mxCell style="html=1;overflow=block;blockSpacing=1;whiteSpace=wrap;rhombus;whiteSpace=wrap;fontSize=19;fontColor=#333333;align=center;spacing=3;strokeColor=#5e5e5e;strokeOpacity=100;fillOpacity=100;rounded=1;absoluteArcSize=1;arcSize=7;fillColor=#ffeca9;strokeWidth=2;" parent="1" vertex="1">
            <mxGeometry x="2704.1800000000003" y="779" width="134" height="73" as="geometry" />
          </mxCell>
        </UserObject>
        <UserObject label="" lucidchartObjectId="5Z11-9_bKaWF" id="t55zHzIVMXnwhdZF8sP2-32">
          <mxCell style="html=1;jettySize=18;whiteSpace=wrap;fontSize=11;strokeColor=#5E5E5E;rounded=1;arcSize=12;startArrow=none;;endArrow=block;endFill=1;;exitX=0.008;exitY=0.5;exitPerimeter=0;entryX=1;entryY=0.083;entryDx=0;entryDy=0;entryPerimeter=0;" parent="1" source="t55zHzIVMXnwhdZF8sP2-31" target="t55zHzIVMXnwhdZF8sP2-13" edge="1">
            <mxGeometry width="100" height="100" relative="1" as="geometry">
              <mxPoint x="2514.1800000000003" y="826" as="targetPoint" />
            </mxGeometry>
          </mxCell>
        </UserObject>
        <UserObject label="Ban" lucidchartObjectId="5Z11-qL5h7Zo" id="t55zHzIVMXnwhdZF8sP2-33">
          <mxCell style="html=1;overflow=block;blockSpacing=1;whiteSpace=wrap;;whiteSpace=wrap;fontSize=27;fontColor=#333333;align=center;spacing=7;strokeColor=#5e5e5e;strokeOpacity=100;fillOpacity=100;rounded=1;absoluteArcSize=1;arcSize=7;fillColor=#ffc374;strokeWidth=2;" parent="1" vertex="1">
            <mxGeometry x="1113.1200000000001" y="498" width="139" height="126" as="geometry" />
          </mxCell>
        </UserObject>
        <UserObject label="Moderatore" lucidchartObjectId="5Z11tU0m_Kim" id="t55zHzIVMXnwhdZF8sP2-34">
          <mxCell style="html=1;overflow=block;blockSpacing=1;whiteSpace=wrap;;whiteSpace=wrap;fontSize=24;fontColor=#333333;align=center;spacing=7;strokeColor=#5e5e5e;strokeOpacity=100;fillOpacity=100;rounded=1;absoluteArcSize=1;arcSize=7;fillColor=#ffc374;strokeWidth=2;" parent="1" vertex="1">
            <mxGeometry x="885.1200000000001" y="909.75" width="139" height="126" as="geometry" />
          </mxCell>
        </UserObject>
        <UserObject label="Effettua" lucidchartObjectId="5Z11YIwC4oJA" id="t55zHzIVMXnwhdZF8sP2-35">
          <mxCell style="html=1;overflow=block;blockSpacing=1;whiteSpace=wrap;rhombus;whiteSpace=wrap;fontSize=19;fontColor=#333333;align=center;spacing=3;strokeColor=#5e5e5e;strokeOpacity=100;fillOpacity=100;rounded=1;absoluteArcSize=1;arcSize=7;fillColor=#ffeca9;strokeWidth=2;" parent="1" vertex="1">
            <mxGeometry x="1113.1200000000001" y="767" width="139" height="72" as="geometry" />
          </mxCell>
        </UserObject>
        <UserObject label="" lucidchartObjectId="5Z111G0WaBB_" id="t55zHzIVMXnwhdZF8sP2-36">
          <mxCell style="html=1;jettySize=18;whiteSpace=wrap;fontSize=11;strokeColor=#5E5E5E;rounded=1;arcSize=12;startArrow=none;;endArrow=block;endFill=1;;exitX=0.992;exitY=0.5;exitPerimeter=0;entryX=0.005;entryY=0.131;entryPerimeter=0;entryDx=0;entryDy=0;" parent="1" source="t55zHzIVMXnwhdZF8sP2-31" target="t55zHzIVMXnwhdZF8sP2-30" edge="1">
            <mxGeometry width="100" height="100" relative="1" as="geometry" />
          </mxCell>
        </UserObject>
        <UserObject label="Svolge" lucidchartObjectId="5Z119F6c1oJ4" id="t55zHzIVMXnwhdZF8sP2-37">
          <mxCell style="html=1;overflow=block;blockSpacing=1;whiteSpace=wrap;rhombus;whiteSpace=wrap;fontSize=19;fontColor=#333333;align=center;spacing=3;strokeColor=#5e5e5e;strokeOpacity=100;fillOpacity=100;rounded=1;absoluteArcSize=1;arcSize=7;fillColor=#ffeca9;strokeWidth=2;" parent="1" vertex="1">
            <mxGeometry x="1244.18" y="1034" width="139" height="72" as="geometry" />
          </mxCell>
        </UserObject>
        <UserObject label="Subisce" lucidchartObjectId="5Z118ISZ76tE" id="t55zHzIVMXnwhdZF8sP2-38">
          <mxCell style="html=1;overflow=block;blockSpacing=1;whiteSpace=wrap;rhombus;whiteSpace=wrap;fontSize=19;fontColor=#333333;align=center;spacing=3;strokeColor=#5e5e5e;strokeOpacity=100;fillOpacity=100;rounded=1;absoluteArcSize=1;arcSize=7;fillColor=#ffeca9;strokeWidth=2;" parent="1" vertex="1">
            <mxGeometry x="1356.18" y="800" width="137" height="72" as="geometry" />
          </mxCell>
        </UserObject>
        <UserObject label="" lucidchartObjectId="5Z11K42ZWmKD" id="t55zHzIVMXnwhdZF8sP2-39">
          <mxCell style="html=1;jettySize=18;whiteSpace=wrap;fontSize=11;strokeColor=#5E5E5E;rounded=1;arcSize=12;edgeStyle=orthogonalEdgeStyle;startArrow=none;;endArrow=block;endFill=1;;exitX=0.008;exitY=0.5;exitPerimeter=0;entryX=1.006;entryY=0.273;entryPerimeter=0;" parent="1" source="t55zHzIVMXnwhdZF8sP2-38" target="t55zHzIVMXnwhdZF8sP2-33" edge="1">
            <mxGeometry width="100" height="100" relative="1" as="geometry">
              <Array as="points">
                <mxPoint x="1304.18" y="836" />
                <mxPoint x="1304.18" y="532" />
              </Array>
            </mxGeometry>
          </mxCell>
        </UserObject>
        <UserObject label="Possiede" lucidchartObjectId="5Z11ToOh66SS" id="t55zHzIVMXnwhdZF8sP2-40">
          <mxCell style="html=1;overflow=block;blockSpacing=1;whiteSpace=wrap;rhombus;whiteSpace=wrap;fontSize=19;fontColor=#333333;align=center;spacing=3;strokeColor=#5e5e5e;strokeOpacity=100;fillOpacity=100;rounded=1;absoluteArcSize=1;arcSize=7;fillColor=#ffeca9;strokeWidth=2;" parent="1" vertex="1">
            <mxGeometry x="1449.68" y="190" width="139" height="72" as="geometry" />
          </mxCell>
        </UserObject>
        <UserObject label="Coinvolge" lucidchartObjectId="5Z11NZ_iXVaZ" id="t55zHzIVMXnwhdZF8sP2-41">
          <mxCell style="html=1;overflow=block;blockSpacing=1;whiteSpace=wrap;rhombus;whiteSpace=wrap;fontSize=19;fontColor=#333333;align=center;spacing=3;strokeColor=#5e5e5e;strokeOpacity=100;fillOpacity=100;rounded=1;absoluteArcSize=1;arcSize=7;fillColor=#ffeca9;strokeWidth=2;" parent="1" vertex="1">
            <mxGeometry x="1451.68" y="270" width="137" height="72" as="geometry" />
          </mxCell>
        </UserObject>
        <UserObject label="" lucidchartObjectId="5Z11xf0tmfcv" id="t55zHzIVMXnwhdZF8sP2-42">
          <mxCell style="html=1;jettySize=18;whiteSpace=wrap;fontSize=11;strokeColor=#5E5E5E;rounded=1;arcSize=12;edgeStyle=orthogonalEdgeStyle;startArrow=none;;endArrow=block;endFill=1;;exitX=0.008;exitY=0.5;exitPerimeter=0;" parent="1" source="t55zHzIVMXnwhdZF8sP2-40" edge="1">
            <mxGeometry width="100" height="100" relative="1" as="geometry">
              <mxPoint x="954.1800000000001" y="912" as="targetPoint" />
            </mxGeometry>
          </mxCell>
        </UserObject>
        <UserObject label="" lucidchartObjectId="5Z11qix6UHHO" id="t55zHzIVMXnwhdZF8sP2-43">
          <mxCell style="html=1;jettySize=18;whiteSpace=wrap;fontSize=11;strokeColor=#5E5E5E;rounded=1;arcSize=12;startArrow=none;;endArrow=block;endFill=1;;exitX=0.992;exitY=0.5;exitPerimeter=0;entryX=0.25;entryY=0;entryDx=0;entryDy=0;" parent="1" source="t55zHzIVMXnwhdZF8sP2-41" target="t55zHzIVMXnwhdZF8sP2-12" edge="1">
            <mxGeometry width="100" height="100" relative="1" as="geometry">
              <Array as="points">
                <mxPoint x="1768.18" y="306" />
              </Array>
              <mxPoint x="1735.18" y="366" as="targetPoint" />
            </mxGeometry>
          </mxCell>
        </UserObject>
        <UserObject label="" lucidchartObjectId="5Z116_kDXXJ~" id="t55zHzIVMXnwhdZF8sP2-44">
          <mxCell style="html=1;jettySize=18;whiteSpace=wrap;fontSize=11;strokeColor=#5E5E5E;rounded=1;arcSize=12;startArrow=none;;endArrow=block;endFill=1;;exitX=0.008;exitY=0.5;exitPerimeter=0;entryX=1.006;entryY=0.571;entryPerimeter=0;" parent="1" source="t55zHzIVMXnwhdZF8sP2-20" target="t55zHzIVMXnwhdZF8sP2-12" edge="1">
            <mxGeometry width="100" height="100" relative="1" as="geometry" />
          </mxCell>
        </UserObject>
        <UserObject label="Feed" lucidchartObjectId="5Z11r3Dl_LUG" id="t55zHzIVMXnwhdZF8sP2-45">
          <mxCell style="html=1;overflow=block;blockSpacing=1;whiteSpace=wrap;;whiteSpace=wrap;fontSize=27;fontColor=#333333;align=center;spacing=7;strokeColor=#5e5e5e;strokeOpacity=100;fillOpacity=100;rounded=1;absoluteArcSize=1;arcSize=7;fillColor=#ffc374;strokeWidth=2;" parent="1" vertex="1">
            <mxGeometry x="1336.18" y="569" width="139" height="126" as="geometry" />
          </mxCell>
        </UserObject>
        <UserObject label="Compone" lucidchartObjectId="5Z11OJM.wt_c" id="t55zHzIVMXnwhdZF8sP2-46">
          <mxCell style="html=1;overflow=block;blockSpacing=1;whiteSpace=wrap;rhombus;whiteSpace=wrap;fontSize=19;fontColor=#333333;align=center;spacing=3;strokeColor=#5e5e5e;strokeOpacity=100;fillOpacity=100;rounded=1;absoluteArcSize=1;arcSize=7;fillColor=#ffeca9;strokeWidth=2;" parent="1" vertex="1">
            <mxGeometry x="1493.18" y="730" width="139" height="72" as="geometry" />
          </mxCell>
        </UserObject>
        <UserObject label="Include" lucidchartObjectId="5Z116CULyFv5" id="t55zHzIVMXnwhdZF8sP2-47">
          <mxCell style="html=1;overflow=block;blockSpacing=1;whiteSpace=wrap;rhombus;whiteSpace=wrap;fontSize=19;fontColor=#333333;align=center;spacing=3;strokeColor=#5e5e5e;strokeOpacity=100;fillOpacity=100;rounded=1;absoluteArcSize=1;arcSize=7;fillColor=#ffeca9;strokeWidth=2;" parent="1" vertex="1">
            <mxGeometry x="1446.18" y="430" width="157" height="72" as="geometry" />
          </mxCell>
        </UserObject>
        <UserObject label="" lucidchartObjectId="5Z11rAjo7-qb" id="t55zHzIVMXnwhdZF8sP2-48">
          <mxCell style="html=1;jettySize=18;whiteSpace=wrap;fontSize=11;strokeColor=#5E5E5E;rounded=1;arcSize=12;edgeStyle=orthogonalEdgeStyle;startArrow=none;;endArrow=block;endFill=1;;exitX=0.007;exitY=0.5;exitPerimeter=0;entryX=0.5;entryY=-0.007;entryPerimeter=0;" parent="1" source="t55zHzIVMXnwhdZF8sP2-47" target="t55zHzIVMXnwhdZF8sP2-45" edge="1">
            <mxGeometry width="100" height="100" relative="1" as="geometry">
              <Array as="points">
                <mxPoint x="1406.18" y="466" />
              </Array>
            </mxGeometry>
          </mxCell>
        </UserObject>
        <UserObject label="" lucidchartObjectId="5Z11dD4BgISq" id="t55zHzIVMXnwhdZF8sP2-49">
          <mxCell style="html=1;jettySize=18;whiteSpace=wrap;fontSize=11;strokeColor=#5E5E5E;rounded=1;arcSize=12;edgeStyle=orthogonalEdgeStyle;startArrow=none;;endArrow=block;endFill=1;;exitX=0.008;exitY=0.5;exitPerimeter=0;entryX=0.5;entryY=1.007;entryPerimeter=0;" parent="1" source="t55zHzIVMXnwhdZF8sP2-46" target="t55zHzIVMXnwhdZF8sP2-45" edge="1">
            <mxGeometry width="100" height="100" relative="1" as="geometry" />
          </mxCell>
        </UserObject>
        <UserObject label="Amicizia" lucidchartObjectId="5Z11pVs4XD9r" id="t55zHzIVMXnwhdZF8sP2-50">
          <mxCell style="html=1;overflow=block;blockSpacing=1;whiteSpace=wrap;rhombus;whiteSpace=wrap;fontSize=19;fontColor=#333333;align=center;spacing=3;strokeColor=#5e5e5e;strokeOpacity=100;fillOpacity=100;rounded=1;absoluteArcSize=1;arcSize=7;fillColor=#ffeca9;strokeWidth=2;" parent="1" vertex="1">
            <mxGeometry x="1873.18" y="767" width="139" height="75" as="geometry" />
          </mxCell>
        </UserObject>
        <UserObject label="" lucidchartObjectId="5Z11gbB91ovn" id="t55zHzIVMXnwhdZF8sP2-51">
          <mxCell style="html=1;jettySize=18;whiteSpace=wrap;fontSize=11;strokeColor=#5E5E5E;rounded=1;arcSize=12;edgeStyle=orthogonalEdgeStyle;startArrow=none;;endArrow=block;endFill=1;;exitX=0.5;exitY=0.998;exitPerimeter=0;entryX=1.005;entryY=0.045;entryPerimeter=0;" parent="1" source="t55zHzIVMXnwhdZF8sP2-50" target="t55zHzIVMXnwhdZF8sP2-11" edge="1">
            <mxGeometry width="100" height="100" relative="1" as="geometry">
              <Array as="points" />
            </mxGeometry>
          </mxCell>
        </UserObject>
        <UserObject label="" lucidchartObjectId="5Z11EI6WQiYW" id="t55zHzIVMXnwhdZF8sP2-52">
          <mxCell style="html=1;jettySize=18;whiteSpace=wrap;fontSize=11;strokeColor=#5E5E5E;rounded=1;arcSize=12;edgeStyle=orthogonalEdgeStyle;startArrow=none;;endArrow=block;endFill=1;;exitX=0.008;exitY=0.5;exitPerimeter=0;entryX=0.906;entryY=-0.006;entryPerimeter=0;" parent="1" source="t55zHzIVMXnwhdZF8sP2-50" target="t55zHzIVMXnwhdZF8sP2-11" edge="1">
            <mxGeometry width="100" height="100" relative="1" as="geometry">
              <Array as="points">
                <mxPoint x="1857.18" y="805" />
              </Array>
            </mxGeometry>
          </mxCell>
        </UserObject>
        <UserObject label="Award" lucidchartObjectId="5Z11_9Wty6S1" id="t55zHzIVMXnwhdZF8sP2-53">
          <mxCell style="html=1;overflow=block;blockSpacing=1;whiteSpace=wrap;;whiteSpace=wrap;fontSize=27;fontColor=#333333;align=center;spacing=3;strokeColor=#5e5e5e;strokeOpacity=100;fillOpacity=100;rounded=1;absoluteArcSize=1;arcSize=7;fillColor=#ffc374;strokeWidth=2;" parent="1" vertex="1">
            <mxGeometry x="2146.03" y="1487.9700000000003" width="139" height="126" as="geometry" />
          </mxCell>
        </UserObject>
        <UserObject label="Assegna" lucidchartObjectId="5Z11iGa5ESLG" id="t55zHzIVMXnwhdZF8sP2-54">
          <mxCell style="html=1;overflow=block;blockSpacing=1;whiteSpace=wrap;rhombus;whiteSpace=wrap;fontSize=19;fontColor=#333333;align=center;spacing=3;strokeColor=#5e5e5e;strokeOpacity=100;fillOpacity=100;rounded=1;absoluteArcSize=1;arcSize=7;fillColor=#ffeca9;strokeWidth=2;" parent="1" vertex="1">
            <mxGeometry x="1895.6499999999999" y="1510.9700000000003" width="139" height="81" as="geometry" />
          </mxCell>
        </UserObject>
        <UserObject label="" lucidchartObjectId="5Z11sIX_qyNL" id="t55zHzIVMXnwhdZF8sP2-55">
          <mxCell style="html=1;jettySize=18;whiteSpace=wrap;fontSize=11;strokeColor=#5E5E5E;rounded=1;arcSize=12;edgeStyle=orthogonalEdgeStyle;startArrow=none;;endArrow=block;endFill=1;;entryX=-0.006;entryY=0.5;entryPerimeter=0;exitX=1;exitY=0.5;exitDx=0;exitDy=0;" parent="1" target="t55zHzIVMXnwhdZF8sP2-53" edge="1">
            <mxGeometry width="100" height="100" relative="1" as="geometry">
              <Array as="points">
                <mxPoint x="2085.03" y="1550.9700000000003" />
              </Array>
              <mxPoint x="2063.0299999999997" y="1551.4700000000003" as="sourcePoint" />
            </mxGeometry>
          </mxCell>
        </UserObject>
        <UserObject label="Ottiene" lucidchartObjectId="5Z11CagnsyLX" id="t55zHzIVMXnwhdZF8sP2-56">
          <mxCell style="html=1;overflow=block;blockSpacing=1;whiteSpace=wrap;rhombus;whiteSpace=wrap;fontSize=19;fontColor=#333333;align=center;spacing=3;strokeColor=#5e5e5e;strokeOpacity=100;fillOpacity=100;rounded=1;absoluteArcSize=1;arcSize=7;fillColor=#ffeca9;strokeWidth=2;" parent="1" vertex="1">
            <mxGeometry x="2437.8" y="1510.4700000000003" width="192" height="81" as="geometry" />
          </mxCell>
        </UserObject>
        <UserObject label="" lucidchartObjectId="5Z11KuU5c5hF" id="t55zHzIVMXnwhdZF8sP2-57">
          <mxCell style="html=1;jettySize=18;whiteSpace=wrap;fontSize=11;strokeColor=#5E5E5E;rounded=1;arcSize=12;edgeStyle=orthogonalEdgeStyle;startArrow=none;;endArrow=block;endFill=1;;exitX=0.5;exitY=0;exitPerimeter=0;entryX=1.006;entryY=0.166;entryPerimeter=0;" parent="1" source="t55zHzIVMXnwhdZF8sP2-56" target="t55zHzIVMXnwhdZF8sP2-14" edge="1">
            <mxGeometry width="100" height="100" relative="1" as="geometry">
              <Array as="points" />
            </mxGeometry>
          </mxCell>
        </UserObject>
        <UserObject label="" lucidchartObjectId="5Z11bfRCtRuw" id="t55zHzIVMXnwhdZF8sP2-58">
          <mxCell style="html=1;jettySize=18;whiteSpace=wrap;fontSize=11;strokeColor=#5E5E5E;rounded=1;arcSize=12;edgeStyle=orthogonalEdgeStyle;startArrow=none;;endArrow=block;endFill=1;;exitX=0.5;exitY=0.002;exitPerimeter=0;entryX=0.5;entryY=1.007;entryPerimeter=0;" parent="1" source="t55zHzIVMXnwhdZF8sP2-35" target="t55zHzIVMXnwhdZF8sP2-33" edge="1">
            <mxGeometry width="100" height="100" relative="1" as="geometry">
              <Array as="points" />
            </mxGeometry>
          </mxCell>
        </UserObject>
        <UserObject label="" lucidchartObjectId="5Z11n4iT4uZ4" id="t55zHzIVMXnwhdZF8sP2-59">
          <mxCell style="html=1;jettySize=18;whiteSpace=wrap;fontSize=11;strokeColor=#5E5E5E;rounded=1;arcSize=12;edgeStyle=orthogonalEdgeStyle;startArrow=none;;endArrow=block;endFill=1;;exitX=0.992;exitY=0.5;exitPerimeter=0;entryX=0.162;entryY=-0.005;entryDx=0;entryDy=0;entryPerimeter=0;" parent="1" edge="1">
            <mxGeometry width="100" height="100" relative="1" as="geometry">
              <Array as="points">
                <mxPoint x="1729.18" y="766" />
              </Array>
              <mxPoint x="1632.068" y="766" as="sourcePoint" />
              <mxPoint x="1729.206" y="896.2750000000005" as="targetPoint" />
            </mxGeometry>
          </mxCell>
        </UserObject>
        <UserObject label="" lucidchartObjectId="5Z112bqZWkyQ" id="t55zHzIVMXnwhdZF8sP2-60">
          <mxCell style="html=1;jettySize=18;whiteSpace=wrap;fontSize=11;strokeColor=#5E5E5E;rounded=1;arcSize=12;edgeStyle=orthogonalEdgeStyle;startArrow=none;;endArrow=block;endFill=1;;exitX=0.992;exitY=0.5;exitPerimeter=0;entryX=0.5;entryY=-0.007;entryPerimeter=0;" parent="1" source="t55zHzIVMXnwhdZF8sP2-40" target="t55zHzIVMXnwhdZF8sP2-12" edge="1">
            <mxGeometry width="100" height="100" relative="1" as="geometry">
              <Array as="points" />
            </mxGeometry>
          </mxCell>
        </UserObject>
        <UserObject label="" lucidchartObjectId="5Z1130ydW7bh" id="t55zHzIVMXnwhdZF8sP2-61">
          <mxCell style="html=1;jettySize=18;whiteSpace=wrap;fontSize=11;strokeColor=#5E5E5E;rounded=1;arcSize=12;startArrow=none;;endArrow=block;endFill=1;;exitX=0.993;exitY=0.5;exitPerimeter=0;entryX=0.008;entryY=0.888;entryDx=0;entryDy=0;entryPerimeter=0;" parent="1" source="t55zHzIVMXnwhdZF8sP2-47" target="t55zHzIVMXnwhdZF8sP2-12" edge="1">
            <mxGeometry width="100" height="100" relative="1" as="geometry">
              <mxPoint x="1724.18" y="466" as="targetPoint" />
            </mxGeometry>
          </mxCell>
        </UserObject>
        <UserObject label="Iscrizione" lucidchartObjectId="5Z11dhynnVAx" id="t55zHzIVMXnwhdZF8sP2-62">
          <mxCell style="html=1;overflow=block;blockSpacing=1;whiteSpace=wrap;rhombus;whiteSpace=wrap;fontSize=19;fontColor=#333333;align=center;spacing=3;strokeColor=#5e5e5e;strokeOpacity=100;fillOpacity=100;rounded=1;absoluteArcSize=1;arcSize=7;fillColor=#ffeca9;strokeWidth=2;" parent="1" vertex="1">
            <mxGeometry x="1754.18" y="607.5" width="139" height="72" as="geometry" />
          </mxCell>
        </UserObject>
        <UserObject label="" lucidchartObjectId="5Z11XeuHcFP2" id="t55zHzIVMXnwhdZF8sP2-63">
          <mxCell style="html=1;jettySize=18;whiteSpace=wrap;fontSize=11;strokeColor=#5E5E5E;rounded=1;arcSize=12;startArrow=none;;endArrow=block;endFill=1;;exitX=0.5;exitY=0.998;exitPerimeter=0;" parent="1" source="t55zHzIVMXnwhdZF8sP2-62" edge="1">
            <mxGeometry width="100" height="100" relative="1" as="geometry">
              <mxPoint x="1824.18" y="895.9999999999995" as="targetPoint" />
            </mxGeometry>
          </mxCell>
        </UserObject>
        <UserObject label="" lucidchartObjectId="5Z11.4Il8FOT" id="t55zHzIVMXnwhdZF8sP2-64">
          <mxCell style="html=1;jettySize=18;whiteSpace=wrap;fontSize=11;strokeColor=#5E5E5E;rounded=1;arcSize=12;startArrow=none;;endArrow=block;endFill=1;;exitX=0.5;exitY=0.998;exitPerimeter=0;" parent="1" source="t55zHzIVMXnwhdZF8sP2-15" edge="1">
            <mxGeometry width="100" height="100" relative="1" as="geometry">
              <mxPoint x="1744.18" y="895.9999999999995" as="targetPoint" />
            </mxGeometry>
          </mxCell>
        </UserObject>
        <UserObject label="" lucidchartObjectId="5Z11WpmmcvCm" id="t55zHzIVMXnwhdZF8sP2-65">
          <mxCell style="html=1;jettySize=18;whiteSpace=wrap;fontSize=11;strokeColor=#5E5E5E;rounded=1;arcSize=12;startArrow=none;;endArrow=block;endFill=1;;exitX=0.5;exitY=0.002;exitPerimeter=0;" parent="1" source="t55zHzIVMXnwhdZF8sP2-15" edge="1">
            <mxGeometry width="100" height="100" relative="1" as="geometry">
              <mxPoint x="1744.18" y="481" as="targetPoint" />
            </mxGeometry>
          </mxCell>
        </UserObject>
        <UserObject label="" lucidchartObjectId="5Z11hPHnX-.g" id="t55zHzIVMXnwhdZF8sP2-66">
          <mxCell style="html=1;jettySize=18;whiteSpace=wrap;fontSize=11;strokeColor=#5E5E5E;rounded=1;arcSize=12;startArrow=none;;endArrow=block;endFill=1;;exitX=0.5;exitY=0.002;exitPerimeter=0;entryX=0.653;entryY=0.994;entryPerimeter=0;entryDx=0;entryDy=0;" parent="1" source="t55zHzIVMXnwhdZF8sP2-62" target="t55zHzIVMXnwhdZF8sP2-12" edge="1">
            <mxGeometry width="100" height="100" relative="1" as="geometry" />
          </mxCell>
        </UserObject>
        <UserObject label="Messaggio" lucidchartObjectId="5Z11IzBW45~f" id="t55zHzIVMXnwhdZF8sP2-67">
          <mxCell style="html=1;overflow=block;blockSpacing=1;whiteSpace=wrap;;whiteSpace=wrap;fontSize=27;fontColor=#333333;align=center;spacing=3;strokeColor=#5e5e5e;strokeOpacity=100;fillOpacity=100;rounded=1;absoluteArcSize=1;arcSize=7;fillColor=#ffc374;strokeWidth=2;" parent="1" vertex="1">
            <mxGeometry x="1245.68" y="1150" width="139" height="126" as="geometry" />
          </mxCell>
        </UserObject>
        <UserObject label="" lucidchartObjectId="5Z11bzBFjJWu" id="t55zHzIVMXnwhdZF8sP2-68">
          <mxCell style="html=1;jettySize=18;whiteSpace=wrap;fontSize=11;strokeColor=#5E5E5E;rounded=1;arcSize=12;edgeStyle=orthogonalEdgeStyle;startArrow=none;;endArrow=block;endFill=1;;exitX=0.003;exitY=0.5;exitPerimeter=0;entryX=0.947;entryY=0.998;entryPerimeter=0;entryDx=0;entryDy=0;" parent="1" source="t55zHzIVMXnwhdZF8sP2-24" target="t55zHzIVMXnwhdZF8sP2-11" edge="1">
            <mxGeometry width="100" height="100" relative="1" as="geometry">
              <Array as="points">
                <mxPoint x="1920.18" y="1237" />
                <mxPoint x="1864.18" y="1237" />
              </Array>
            </mxGeometry>
          </mxCell>
        </UserObject>
        <UserObject label="" lucidchartObjectId="5Z11lgrL3pck" id="t55zHzIVMXnwhdZF8sP2-69">
          <mxCell style="html=1;jettySize=18;whiteSpace=wrap;fontSize=11;strokeColor=#5E5E5E;rounded=1;arcSize=12;edgeStyle=orthogonalEdgeStyle;startArrow=none;;endArrow=block;endFill=1;;exitX=0.997;exitY=0.5;exitPerimeter=0;entryX=-0.006;entryY=0.138;entryPerimeter=0;" parent="1" source="t55zHzIVMXnwhdZF8sP2-24" target="t55zHzIVMXnwhdZF8sP2-14" edge="1">
            <mxGeometry width="100" height="100" relative="1" as="geometry">
              <Array as="points" />
            </mxGeometry>
          </mxCell>
        </UserObject>
        <UserObject label="Invia" lucidchartObjectId="5Z11-Xl3Ivpf" id="t55zHzIVMXnwhdZF8sP2-70">
          <mxCell style="html=1;overflow=block;blockSpacing=1;whiteSpace=wrap;rhombus;whiteSpace=wrap;fontSize=19;fontColor=#333333;align=center;spacing=3;strokeColor=#5e5e5e;strokeOpacity=100;fillOpacity=100;rounded=1;absoluteArcSize=1;arcSize=7;fillColor=#ffeca9;strokeWidth=2;" parent="1" vertex="1">
            <mxGeometry x="1576.18" y="1227" width="137" height="72" as="geometry" />
          </mxCell>
        </UserObject>
        <UserObject label="Riceve" lucidchartObjectId="5Z114LU4GTxU" id="t55zHzIVMXnwhdZF8sP2-71">
          <mxCell style="html=1;overflow=block;blockSpacing=1;whiteSpace=wrap;rhombus;whiteSpace=wrap;fontSize=19;fontColor=#333333;align=center;spacing=3;strokeColor=#5e5e5e;strokeOpacity=100;fillOpacity=100;rounded=1;absoluteArcSize=1;arcSize=7;fillColor=#ffeca9;strokeWidth=2;" parent="1" vertex="1">
            <mxGeometry x="1493.18" y="1131" width="137" height="72" as="geometry" />
          </mxCell>
        </UserObject>
        <UserObject label="" lucidchartObjectId="5Z11d4.0gO8H" id="t55zHzIVMXnwhdZF8sP2-72">
          <mxCell style="html=1;jettySize=18;whiteSpace=wrap;fontSize=11;strokeColor=#5E5E5E;rounded=1;arcSize=12;edgeStyle=orthogonalEdgeStyle;startArrow=none;;endArrow=block;endFill=1;;exitX=0;exitY=0.5;exitDx=0;exitDy=0;" parent="1" source="t55zHzIVMXnwhdZF8sP2-54" edge="1">
            <mxGeometry width="100" height="100" relative="1" as="geometry">
              <Array as="points">
                <mxPoint x="1803.8" y="1552" />
              </Array>
              <mxPoint x="1804.18" y="1042" as="targetPoint" />
              <mxPoint x="1903.142" y="1546.4700000000003" as="sourcePoint" />
            </mxGeometry>
          </mxCell>
        </UserObject>
        <UserObject label="" lucidchartObjectId="5Z11anhmgrKD" id="t55zHzIVMXnwhdZF8sP2-73">
          <mxCell style="html=1;jettySize=18;whiteSpace=wrap;fontSize=11;strokeColor=#5E5E5E;rounded=1;arcSize=12;edgeStyle=orthogonalEdgeStyle;startArrow=none;;endArrow=block;endFill=1;;exitX=0;exitY=0.5;entryX=1.006;entryY=0.5;entryPerimeter=0;exitDx=0;exitDy=0;" parent="1" source="t55zHzIVMXnwhdZF8sP2-56" target="t55zHzIVMXnwhdZF8sP2-53" edge="1">
            <mxGeometry width="100" height="100" relative="1" as="geometry">
              <Array as="points" />
              <mxPoint x="2360.8019999999997" y="1550.4700000000003" as="sourcePoint" />
            </mxGeometry>
          </mxCell>
        </UserObject>
        <UserObject label="" lucidchartObjectId="5Z11uqkwDgph" id="t55zHzIVMXnwhdZF8sP2-74">
          <mxCell style="html=1;jettySize=18;whiteSpace=wrap;fontSize=11;strokeColor=#5E5E5E;rounded=1;arcSize=12;edgeStyle=orthogonalEdgeStyle;startArrow=none;;endArrow=oval;endFill=1;;exitX=1;exitY=0.75;exitDx=0;exitDy=0;" parent="1" source="t55zHzIVMXnwhdZF8sP2-53" edge="1">
            <mxGeometry width="100" height="100" relative="1" as="geometry">
              <Array as="points">
                <mxPoint x="2306.1800000000003" y="1582" />
                <mxPoint x="2306.1800000000003" y="1470" />
                <mxPoint x="2125.1800000000003" y="1470" />
              </Array>
              <mxPoint x="2125.1800000000003" y="1583" as="targetPoint" />
            </mxGeometry>
          </mxCell>
        </UserObject>
        <UserObject label="" lucidchartObjectId="5Z11Z_Qr8Qe1" id="t55zHzIVMXnwhdZF8sP2-75">
          <mxCell style="html=1;jettySize=18;whiteSpace=wrap;fontSize=11;strokeColor=#5E5E5E;rounded=1;arcSize=12;edgeStyle=orthogonalEdgeStyle;startArrow=none;;endArrow=block;endFill=1;;exitX=0.008;exitY=0.5;exitPerimeter=0;entryX=0.5;entryY=-0.007;entryPerimeter=0;" parent="1" source="t55zHzIVMXnwhdZF8sP2-41" target="t55zHzIVMXnwhdZF8sP2-33" edge="1">
            <mxGeometry width="100" height="100" relative="1" as="geometry">
              <Array as="points" />
            </mxGeometry>
          </mxCell>
        </UserObject>
        <UserObject label="" lucidchartObjectId="5Z11K_A4dE._" id="t55zHzIVMXnwhdZF8sP2-76">
          <mxCell style="html=1;jettySize=18;whiteSpace=wrap;fontSize=11;strokeColor=#5E5E5E;rounded=1;arcSize=12;startArrow=none;;endArrow=block;endFill=1;;exitX=1;exitY=0.5;exitDx=0;exitDy=0;edgeStyle=orthogonalEdgeStyle;entryX=0.073;entryY=0.993;entryDx=0;entryDy=0;entryPerimeter=0;" parent="1" source="t55zHzIVMXnwhdZF8sP2-37" target="t55zHzIVMXnwhdZF8sP2-11" edge="1">
            <mxGeometry width="100" height="100" relative="1" as="geometry">
              <mxPoint x="1552.068" y="997" as="sourcePoint" />
              <mxPoint x="1714.18" y="1086" as="targetPoint" />
              <Array as="points">
                <mxPoint x="1712.8" y="1070" />
              </Array>
            </mxGeometry>
          </mxCell>
        </UserObject>
        <UserObject label="" lucidchartObjectId="5Z11TvtzWn2T" id="t55zHzIVMXnwhdZF8sP2-77">
          <mxCell style="html=1;jettySize=18;whiteSpace=wrap;fontSize=11;strokeColor=#5E5E5E;rounded=1;arcSize=12;startArrow=none;;endArrow=block;endFill=1;;exitX=0;exitY=0.5;exitDx=0;exitDy=0;entryX=0.5;entryY=1;entryDx=0;entryDy=0;edgeStyle=orthogonalEdgeStyle;" parent="1" source="t55zHzIVMXnwhdZF8sP2-37" target="t55zHzIVMXnwhdZF8sP2-34" edge="1">
            <mxGeometry width="100" height="100" relative="1" as="geometry">
              <mxPoint x="1415.2920000000001" y="995.9999999999995" as="sourcePoint" />
              <mxPoint x="1107.18" y="1039" as="targetPoint" />
            </mxGeometry>
          </mxCell>
        </UserObject>
        <UserObject label="" lucidchartObjectId="5Z11YQdqDQZn" id="t55zHzIVMXnwhdZF8sP2-78">
          <mxCell style="html=1;jettySize=18;whiteSpace=wrap;fontSize=11;strokeColor=#5E5E5E;rounded=1;arcSize=12;edgeStyle=orthogonalEdgeStyle;startArrow=none;;endArrow=block;endFill=1;;exitX=0.5;exitY=0.998;exitPerimeter=0;entryX=1.012;entryY=0.302;entryDx=0;entryDy=0;entryPerimeter=0;" parent="1" source="t55zHzIVMXnwhdZF8sP2-35" target="t55zHzIVMXnwhdZF8sP2-34" edge="1">
            <mxGeometry width="100" height="100" relative="1" as="geometry">
              <Array as="points">
                <mxPoint x="1182.18" y="948" />
              </Array>
              <mxPoint x="1194.18" y="966" as="targetPoint" />
            </mxGeometry>
          </mxCell>
        </UserObject>
        <UserObject label="" lucidchartObjectId="5Z11262eVGBi" id="t55zHzIVMXnwhdZF8sP2-79">
          <mxCell style="html=1;jettySize=18;whiteSpace=wrap;fontSize=11;strokeColor=#5E5E5E;rounded=1;arcSize=12;edgeStyle=orthogonalEdgeStyle;startArrow=none;;endArrow=block;endFill=1;;exitX=0.992;exitY=0.5;exitPerimeter=0;" parent="1" source="t55zHzIVMXnwhdZF8sP2-38" edge="1">
            <mxGeometry width="100" height="100" relative="1" as="geometry">
              <Array as="points" />
              <mxPoint x="1714.18" y="896" as="targetPoint" />
            </mxGeometry>
          </mxCell>
        </UserObject>
        <UserObject label="" lucidchartObjectId="5Z11PutT9CG~" id="t55zHzIVMXnwhdZF8sP2-80">
          <mxCell style="html=1;jettySize=18;whiteSpace=wrap;fontSize=11;strokeColor=#5E5E5E;rounded=1;arcSize=12;edgeStyle=orthogonalEdgeStyle;startArrow=none;;endArrow=block;endFill=1;;exitX=0.994;exitY=0.5;exitPerimeter=0;entryX=-0.006;entryY=0.859;entryPerimeter=0;" parent="1" source="t55zHzIVMXnwhdZF8sP2-17" target="t55zHzIVMXnwhdZF8sP2-13" edge="1">
            <mxGeometry width="100" height="100" relative="1" as="geometry">
              <Array as="points">
                <mxPoint x="2184.1800000000003" y="1006" />
                <mxPoint x="2184.1800000000003" y="913" />
              </Array>
            </mxGeometry>
          </mxCell>
        </UserObject>
        <UserObject label="" lucidchartObjectId="5Z11IbVUOMD7" id="t55zHzIVMXnwhdZF8sP2-81">
          <mxCell style="html=1;jettySize=18;whiteSpace=wrap;fontSize=11;strokeColor=#5E5E5E;rounded=1;arcSize=12;edgeStyle=orthogonalEdgeStyle;startArrow=none;;endArrow=block;endFill=1;;exitX=0.5;exitY=0;exitPerimeter=0;entryX=-0.006;entryY=0.263;entryPerimeter=0;" parent="1" source="t55zHzIVMXnwhdZF8sP2-16" target="t55zHzIVMXnwhdZF8sP2-13" edge="1">
            <mxGeometry width="100" height="100" relative="1" as="geometry">
              <Array as="points" />
            </mxGeometry>
          </mxCell>
        </UserObject>
        <UserObject label="" lucidchartObjectId="5Z11J_gF9c9J" id="t55zHzIVMXnwhdZF8sP2-82">
          <mxCell style="html=1;jettySize=18;whiteSpace=wrap;fontSize=11;strokeColor=#5E5E5E;rounded=1;arcSize=12;startArrow=none;;endArrow=block;endFill=1;;exitX=0.008;exitY=0.5;exitPerimeter=0;" parent="1" source="t55zHzIVMXnwhdZF8sP2-70" edge="1">
            <mxGeometry width="100" height="100" relative="1" as="geometry">
              <mxPoint x="1384.6800000000005" y="1262.9999999999995" as="targetPoint" />
            </mxGeometry>
          </mxCell>
        </UserObject>
        <UserObject label="" lucidchartObjectId="5Z11JsUkW0Bc" id="t55zHzIVMXnwhdZF8sP2-83">
          <mxCell style="html=1;jettySize=18;whiteSpace=wrap;fontSize=11;strokeColor=#5E5E5E;rounded=1;arcSize=12;edgeStyle=orthogonalEdgeStyle;startArrow=none;;endArrow=block;endFill=1;;exitX=0.008;exitY=0.5;exitPerimeter=0;entryX=1.006;entryY=0.132;entryPerimeter=0;" parent="1" source="t55zHzIVMXnwhdZF8sP2-71" target="t55zHzIVMXnwhdZF8sP2-67" edge="1">
            <mxGeometry width="100" height="100" relative="1" as="geometry">
              <Array as="points" />
            </mxGeometry>
          </mxCell>
        </UserObject>
        <UserObject label="" lucidchartObjectId="5Z11GnWbACi7" id="t55zHzIVMXnwhdZF8sP2-84">
          <mxCell style="html=1;jettySize=18;whiteSpace=wrap;fontSize=11;strokeColor=#5E5E5E;rounded=1;arcSize=12;edgeStyle=orthogonalEdgeStyle;startArrow=none;;endArrow=block;endFill=1;;exitX=1;exitY=0.5;entryX=0.25;entryY=1;entryDx=0;entryDy=0;exitDx=0;exitDy=0;" parent="1" source="t55zHzIVMXnwhdZF8sP2-71" edge="1">
            <mxGeometry width="100" height="100" relative="1" as="geometry">
              <Array as="points" />
              <mxPoint x="1743.43" y="1041" as="targetPoint" />
              <mxPoint x="1618.584" y="1431" as="sourcePoint" />
            </mxGeometry>
          </mxCell>
        </UserObject>
        <UserObject label="" lucidchartObjectId="5Z119HzDhkaY" id="t55zHzIVMXnwhdZF8sP2-85">
          <mxCell style="html=1;jettySize=18;whiteSpace=wrap;fontSize=11;strokeColor=#5E5E5E;rounded=1;arcSize=12;edgeStyle=orthogonalEdgeStyle;startArrow=none;;endArrow=block;endFill=1;;exitX=1;exitY=0.5;exitDx=0;exitDy=0;" parent="1" source="t55zHzIVMXnwhdZF8sP2-70" edge="1">
            <mxGeometry width="100" height="100" relative="1" as="geometry">
              <Array as="points" />
              <mxPoint x="1774.18" y="1041" as="targetPoint" />
              <mxPoint x="1701.584" y="1525" as="sourcePoint" />
            </mxGeometry>
          </mxCell>
        </UserObject>
        <UserObject label="" lucidchartObjectId="5Z11kN1pvPSC" id="t55zHzIVMXnwhdZF8sP2-86">
          <mxCell style="html=1;jettySize=18;whiteSpace=wrap;fontSize=11;strokeColor=#5E5E5E;rounded=1;arcSize=12;edgeStyle=orthogonalEdgeStyle;startArrow=none;;endArrow=block;endFill=1;;exitX=0.992;exitY=0.5;exitPerimeter=0;entryX=0.5;entryY=-0.007;entryPerimeter=0;" parent="1" source="t55zHzIVMXnwhdZF8sP2-20" target="t55zHzIVMXnwhdZF8sP2-13" edge="1">
            <mxGeometry width="100" height="100" relative="1" as="geometry">
              <Array as="points" />
            </mxGeometry>
          </mxCell>
        </UserObject>
        <UserObject label="" lucidchartObjectId="5Z11l97eUnbX" id="t55zHzIVMXnwhdZF8sP2-87">
          <mxCell style="html=1;jettySize=18;whiteSpace=wrap;fontSize=11;strokeColor=#5E5E5E;rounded=1;arcSize=12;edgeStyle=orthogonalEdgeStyle;startArrow=none;;endArrow=block;endFill=1;;exitX=0.5;exitY=0;exitDx=0;exitDy=0;" parent="1" source="t55zHzIVMXnwhdZF8sP2-28" edge="1">
            <mxGeometry width="100" height="100" relative="1" as="geometry">
              <Array as="points">
                <mxPoint x="2080.1800000000003" y="1336" />
              </Array>
              <mxPoint x="2148.1800000000003" y="1335.9999999999995" as="targetPoint" />
            </mxGeometry>
          </mxCell>
        </UserObject>
        <UserObject label="(1,1)" lucidchartObjectId="5Z115S1hhG.G" id="t55zHzIVMXnwhdZF8sP2-88">
          <mxCell style="html=1;overflow=block;blockSpacing=1;whiteSpace=wrap;strokeColor=none;fillColor=none;whiteSpace=wrap;fontSize=18;fontColor=#333333;align=center;spacing=0;strokeOpacity=100;fillOpacity=100;rounded=1;absoluteArcSize=1;arcSize=7;strokeWidth=2;" parent="1" vertex="1">
            <mxGeometry x="1700.18" y="499" width="42" height="25" as="geometry" />
          </mxCell>
        </UserObject>
        <UserObject label="(0,N)" lucidchartObjectId="5Z113NDxofSv" id="t55zHzIVMXnwhdZF8sP2-89">
          <mxCell style="html=1;overflow=block;blockSpacing=1;whiteSpace=wrap;strokeColor=none;fillColor=none;whiteSpace=wrap;fontSize=18;fontColor=#333333;align=center;spacing=0;strokeOpacity=100;fillOpacity=100;rounded=1;absoluteArcSize=1;arcSize=7;strokeWidth=2;" parent="1" vertex="1">
            <mxGeometry x="1774.18" y="872" width="42" height="25" as="geometry" />
          </mxCell>
        </UserObject>
        <UserObject label="(0,N)" lucidchartObjectId="5Z115MA7gOWO" id="t55zHzIVMXnwhdZF8sP2-90">
          <mxCell style="html=1;overflow=block;blockSpacing=1;whiteSpace=wrap;strokeColor=none;fillColor=none;whiteSpace=wrap;fontSize=18;fontColor=#333333;align=center;spacing=0;strokeOpacity=100;fillOpacity=100;rounded=1;absoluteArcSize=1;arcSize=7;strokeWidth=2;" parent="1" vertex="1">
            <mxGeometry x="1774.18" y="498" width="42" height="25" as="geometry" />
          </mxCell>
        </UserObject>
        <UserObject label="(0,N)" lucidchartObjectId="5Z11lHZJK1Ye" id="t55zHzIVMXnwhdZF8sP2-91">
          <mxCell style="html=1;overflow=block;blockSpacing=1;whiteSpace=wrap;strokeColor=none;fillColor=none;whiteSpace=wrap;fontSize=18;fontColor=#333333;align=center;spacing=0;strokeOpacity=100;fillOpacity=100;rounded=1;absoluteArcSize=1;arcSize=7;strokeWidth=2;" parent="1" vertex="1">
            <mxGeometry x="1877.18" y="980" width="42" height="25" as="geometry" />
          </mxCell>
        </UserObject>
        <UserObject label="(1,1)" lucidchartObjectId="5Z11Z32.xuNk" id="t55zHzIVMXnwhdZF8sP2-92">
          <mxCell style="html=1;overflow=block;blockSpacing=1;whiteSpace=wrap;strokeColor=none;fillColor=none;whiteSpace=wrap;fontSize=18;fontColor=#333333;align=center;spacing=0;strokeOpacity=100;fillOpacity=100;rounded=1;absoluteArcSize=1;arcSize=7;strokeWidth=2;" parent="1" vertex="1">
            <mxGeometry x="2310.1800000000003" y="885" width="42" height="25" as="geometry" />
          </mxCell>
        </UserObject>
        <UserObject label="(0,N)" lucidchartObjectId="5Z11aoaLJge4" id="t55zHzIVMXnwhdZF8sP2-93">
          <mxCell style="html=1;overflow=block;blockSpacing=1;whiteSpace=wrap;strokeColor=none;fillColor=none;whiteSpace=wrap;fontSize=18;fontColor=#333333;align=center;spacing=0;strokeOpacity=100;fillOpacity=100;rounded=1;absoluteArcSize=1;arcSize=7;strokeWidth=2;" parent="1" vertex="1">
            <mxGeometry x="1877.18" y="926" width="42" height="25" as="geometry" />
          </mxCell>
        </UserObject>
        <UserObject label="(0,N)" lucidchartObjectId="5Z11J6ZCeUWL" id="t55zHzIVMXnwhdZF8sP2-94">
          <mxCell style="html=1;overflow=block;blockSpacing=1;whiteSpace=wrap;strokeColor=none;fillColor=none;whiteSpace=wrap;fontSize=18;fontColor=#333333;align=center;spacing=0;strokeOpacity=100;fillOpacity=100;rounded=1;absoluteArcSize=1;arcSize=7;strokeWidth=2;" parent="1" vertex="1">
            <mxGeometry x="2310.1800000000003" y="845" width="42" height="25" as="geometry" />
          </mxCell>
        </UserObject>
        <UserObject label="(0,N)" lucidchartObjectId="5Z113If4WE7X" id="t55zHzIVMXnwhdZF8sP2-95">
          <mxCell style="html=1;overflow=block;blockSpacing=1;whiteSpace=wrap;strokeColor=none;fillColor=none;whiteSpace=wrap;fontSize=18;fontColor=#333333;align=center;spacing=0;strokeOpacity=100;fillOpacity=100;rounded=1;absoluteArcSize=1;arcSize=7;strokeWidth=2;" parent="1" vertex="1">
            <mxGeometry x="1914.18" y="1286" width="42" height="25" as="geometry" />
          </mxCell>
        </UserObject>
        <UserObject label="(1,1)" lucidchartObjectId="5Z11w5VW1Q-O" id="t55zHzIVMXnwhdZF8sP2-96">
          <mxCell style="html=1;overflow=block;blockSpacing=1;whiteSpace=wrap;strokeColor=none;fillColor=none;whiteSpace=wrap;fontSize=18;fontColor=#333333;align=center;spacing=0;strokeOpacity=100;fillOpacity=100;rounded=1;absoluteArcSize=1;arcSize=7;strokeWidth=2;" parent="1" vertex="1">
            <mxGeometry x="2102.1800000000003" y="1286" width="42" height="25" as="geometry" />
          </mxCell>
        </UserObject>
        <UserObject label="(0,N)" lucidchartObjectId="5Z112dtSxHdH" id="t55zHzIVMXnwhdZF8sP2-97">
          <mxCell style="html=1;overflow=block;blockSpacing=1;whiteSpace=wrap;strokeColor=none;fillColor=none;whiteSpace=wrap;fontSize=18;fontColor=#333333;align=center;spacing=0;strokeOpacity=100;fillOpacity=100;rounded=1;absoluteArcSize=1;arcSize=7;strokeWidth=2;" parent="1" vertex="1">
            <mxGeometry x="1884.18" y="1206" width="42" height="25" as="geometry" />
          </mxCell>
        </UserObject>
        <UserObject label="(0,N)" lucidchartObjectId="5Z11x2hheSqF" id="t55zHzIVMXnwhdZF8sP2-98">
          <mxCell style="html=1;overflow=block;blockSpacing=1;whiteSpace=wrap;strokeColor=none;fillColor=none;whiteSpace=wrap;fontSize=18;fontColor=#333333;align=center;spacing=0;strokeOpacity=100;fillOpacity=100;rounded=1;absoluteArcSize=1;arcSize=7;strokeWidth=2;" parent="1" vertex="1">
            <mxGeometry x="2102.1800000000003" y="1206" width="42" height="25" as="geometry" />
          </mxCell>
        </UserObject>
        <UserObject label="(0,N)" lucidchartObjectId="5Z11~tXFGxAh" id="t55zHzIVMXnwhdZF8sP2-99">
          <mxCell style="html=1;overflow=block;blockSpacing=1;whiteSpace=wrap;strokeColor=none;fillColor=none;whiteSpace=wrap;fontSize=18;fontColor=#333333;align=center;spacing=0;strokeOpacity=100;fillOpacity=100;rounded=1;absoluteArcSize=1;arcSize=7;strokeWidth=2;" parent="1" vertex="1">
            <mxGeometry x="1877.18" y="402" width="42" height="25" as="geometry" />
          </mxCell>
        </UserObject>
        <UserObject label="(1,1)" lucidchartObjectId="5Z11ArHPEV_-" id="t55zHzIVMXnwhdZF8sP2-100">
          <mxCell style="html=1;overflow=block;blockSpacing=1;whiteSpace=wrap;strokeColor=none;fillColor=none;whiteSpace=wrap;fontSize=18;fontColor=#333333;align=center;spacing=0;strokeOpacity=100;fillOpacity=100;rounded=1;absoluteArcSize=1;arcSize=7;strokeWidth=2;" parent="1" vertex="1">
            <mxGeometry x="2435.1800000000003" y="774" width="42" height="25" as="geometry" />
          </mxCell>
        </UserObject>
        <UserObject label="(0,N)" lucidchartObjectId="5Z11kx7jA8GZ" id="t55zHzIVMXnwhdZF8sP2-101">
          <mxCell style="html=1;overflow=block;blockSpacing=1;whiteSpace=wrap;strokeColor=none;fillColor=none;whiteSpace=wrap;fontSize=18;fontColor=#333333;align=center;spacing=0;strokeOpacity=100;fillOpacity=100;rounded=1;absoluteArcSize=1;arcSize=7;strokeWidth=2;" parent="1" vertex="1">
            <mxGeometry x="2352.1800000000003" y="941" width="42" height="25" as="geometry" />
          </mxCell>
        </UserObject>
        <UserObject label="(1,1)" lucidchartObjectId="5Z11f4KOLJK_" id="t55zHzIVMXnwhdZF8sP2-102">
          <mxCell style="html=1;overflow=block;blockSpacing=1;whiteSpace=wrap;strokeColor=none;fillColor=none;whiteSpace=wrap;fontSize=18;fontColor=#333333;align=center;spacing=0;strokeOpacity=100;fillOpacity=100;rounded=1;absoluteArcSize=1;arcSize=7;strokeWidth=2;" parent="1" vertex="1">
            <mxGeometry x="2236.1800000000003" y="1187" width="42" height="25" as="geometry" />
          </mxCell>
        </UserObject>
        <UserObject label="(0,1)" lucidchartObjectId="5Z11d-IWscU8" id="t55zHzIVMXnwhdZF8sP2-103">
          <mxCell style="html=1;overflow=block;blockSpacing=1;whiteSpace=wrap;strokeColor=none;fillColor=none;whiteSpace=wrap;fontSize=18;fontColor=#333333;align=center;spacing=0;strokeOpacity=100;fillOpacity=100;rounded=1;absoluteArcSize=1;arcSize=7;strokeWidth=2;" parent="1" vertex="1">
            <mxGeometry x="2662.1800000000003" y="784" width="42" height="25" as="geometry" />
          </mxCell>
        </UserObject>
        <UserObject label="(1,1)" lucidchartObjectId="5Z118Xax0H3z" id="t55zHzIVMXnwhdZF8sP2-104">
          <mxCell style="html=1;overflow=block;blockSpacing=1;whiteSpace=wrap;strokeColor=none;fillColor=none;whiteSpace=wrap;fontSize=18;fontColor=#333333;align=center;spacing=0;strokeOpacity=100;fillOpacity=100;rounded=1;absoluteArcSize=1;arcSize=7;strokeWidth=2;" parent="1" vertex="1">
            <mxGeometry x="2838.1800000000003" y="784" width="42" height="25" as="geometry" />
          </mxCell>
        </UserObject>
        <UserObject label="(0,N)" lucidchartObjectId="5Z11vX.k-axX" id="t55zHzIVMXnwhdZF8sP2-105">
          <mxCell style="html=1;overflow=block;blockSpacing=1;whiteSpace=wrap;strokeColor=none;fillColor=none;whiteSpace=wrap;fontSize=18;fontColor=#333333;align=center;spacing=0;strokeOpacity=100;fillOpacity=100;rounded=1;absoluteArcSize=1;arcSize=7;strokeWidth=2;" parent="1" vertex="1">
            <mxGeometry x="1843.8" y="1523.4700000000003" width="42" height="25" as="geometry" />
          </mxCell>
        </UserObject>
        <UserObject label="(1,1)" lucidchartObjectId="5Z11lLiUwaJ_" id="t55zHzIVMXnwhdZF8sP2-106">
          <mxCell style="html=1;overflow=block;blockSpacing=1;whiteSpace=wrap;strokeColor=none;fillColor=none;whiteSpace=wrap;fontSize=18;fontColor=#333333;align=center;spacing=0;strokeOpacity=100;fillOpacity=100;rounded=1;absoluteArcSize=1;arcSize=7;strokeWidth=2;" parent="1" vertex="1">
            <mxGeometry x="2066.5299999999997" y="1523.4700000000003" width="42" height="25" as="geometry" />
          </mxCell>
        </UserObject>
        <UserObject label="(0,1)" lucidchartObjectId="5Z11NMsBKQ23" id="t55zHzIVMXnwhdZF8sP2-107">
          <mxCell style="html=1;overflow=block;blockSpacing=1;whiteSpace=wrap;strokeColor=none;fillColor=none;whiteSpace=wrap;fontSize=18;fontColor=#333333;align=center;spacing=0;strokeOpacity=100;fillOpacity=100;rounded=1;absoluteArcSize=1;arcSize=7;strokeWidth=2;" parent="1" vertex="1">
            <mxGeometry x="2102.1800000000003" y="1341" width="42" height="25" as="geometry" />
          </mxCell>
        </UserObject>
        <UserObject label="(0,N)" lucidchartObjectId="5Z11FwRTwdjU" id="t55zHzIVMXnwhdZF8sP2-108">
          <mxCell style="html=1;overflow=block;blockSpacing=1;whiteSpace=wrap;strokeColor=none;fillColor=none;whiteSpace=wrap;fontSize=18;fontColor=#333333;align=center;spacing=0;strokeOpacity=100;fillOpacity=100;rounded=1;absoluteArcSize=1;arcSize=7;strokeWidth=2;" parent="1" vertex="1">
            <mxGeometry x="2144.1800000000003" y="1406" width="42" height="25" as="geometry" />
          </mxCell>
        </UserObject>
        <UserObject label="(0,N)" lucidchartObjectId="5Z11mel1xulj" id="t55zHzIVMXnwhdZF8sP2-109">
          <mxCell style="html=1;overflow=block;blockSpacing=1;whiteSpace=wrap;strokeColor=none;fillColor=none;whiteSpace=wrap;fontSize=18;fontColor=#333333;align=center;spacing=0;strokeOpacity=100;fillOpacity=100;rounded=1;absoluteArcSize=1;arcSize=7;strokeWidth=2;" parent="1" vertex="1">
            <mxGeometry x="2297.1800000000003" y="1212" width="42" height="25" as="geometry" />
          </mxCell>
        </UserObject>
        <UserObject label="(1,1)" lucidchartObjectId="5Z112gDtx1PO" id="t55zHzIVMXnwhdZF8sP2-110">
          <mxCell style="html=1;overflow=block;blockSpacing=1;whiteSpace=wrap;strokeColor=none;fillColor=none;whiteSpace=wrap;fontSize=18;fontColor=#333333;align=center;spacing=0;strokeOpacity=100;fillOpacity=100;rounded=1;absoluteArcSize=1;arcSize=0;strokeWidth=2;" parent="1" vertex="1">
            <mxGeometry x="2310.1800000000003" y="1523.4700000000003" width="42" height="25" as="geometry" />
          </mxCell>
        </UserObject>
        <UserObject label="(0,N)" lucidchartObjectId="5Z114bK1leJl" id="t55zHzIVMXnwhdZF8sP2-111">
          <mxCell style="html=1;overflow=block;blockSpacing=1;whiteSpace=wrap;strokeColor=none;fillColor=none;whiteSpace=wrap;fontSize=18;fontColor=#333333;align=center;spacing=0;strokeOpacity=100;fillOpacity=100;rounded=1;absoluteArcSize=1;arcSize=7;strokeWidth=2;" parent="1" vertex="1">
            <mxGeometry x="1949.18" y="872" width="42" height="25" as="geometry" />
          </mxCell>
        </UserObject>
        <UserObject label="(0,N)" lucidchartObjectId="5Z11aURJfkDl" id="t55zHzIVMXnwhdZF8sP2-112">
          <mxCell style="html=1;overflow=block;blockSpacing=1;whiteSpace=wrap;strokeColor=none;fillColor=none;whiteSpace=wrap;fontSize=18;fontColor=#333333;align=center;spacing=0;strokeOpacity=100;fillOpacity=100;rounded=1;absoluteArcSize=1;arcSize=7;strokeWidth=2;" parent="1" vertex="1">
            <mxGeometry x="1862.18" y="872" width="42" height="25" as="geometry" />
          </mxCell>
        </UserObject>
        <UserObject label="(0,N)" lucidchartObjectId="5Z11HLc2~M-j" id="t55zHzIVMXnwhdZF8sP2-113">
          <mxCell style="html=1;overflow=block;blockSpacing=1;whiteSpace=wrap;strokeColor=none;fillColor=none;whiteSpace=wrap;fontSize=18;fontColor=#333333;align=center;spacing=0;strokeOpacity=100;fillOpacity=100;rounded=1;absoluteArcSize=1;arcSize=7;strokeWidth=2;" parent="1" vertex="1">
            <mxGeometry x="1722.68" y="1231" width="42" height="25" as="geometry" />
          </mxCell>
        </UserObject>
        <UserObject label="(1,1)" lucidchartObjectId="5Z110gaChO79" id="t55zHzIVMXnwhdZF8sP2-114">
          <mxCell style="html=1;overflow=block;blockSpacing=1;whiteSpace=wrap;strokeColor=none;fillColor=none;whiteSpace=wrap;fontSize=18;fontColor=#333333;align=center;spacing=0;strokeOpacity=100;fillOpacity=100;rounded=1;absoluteArcSize=1;arcSize=7;strokeWidth=2;" parent="1" vertex="1">
            <mxGeometry x="1531.68" y="1234" width="42" height="25" as="geometry" />
          </mxCell>
        </UserObject>
        <UserObject label="(0,N)" lucidchartObjectId="5Z11bfAPcn1R" id="t55zHzIVMXnwhdZF8sP2-115">
          <mxCell style="html=1;overflow=block;blockSpacing=1;whiteSpace=wrap;strokeColor=none;fillColor=none;whiteSpace=wrap;fontSize=18;fontColor=#333333;align=center;spacing=0;strokeOpacity=100;fillOpacity=100;rounded=1;absoluteArcSize=1;arcSize=7;strokeWidth=2;" parent="1" vertex="1">
            <mxGeometry x="1629.68" y="1138" width="42" height="25" as="geometry" />
          </mxCell>
        </UserObject>
        <UserObject label="(1,1)" lucidchartObjectId="5Z1184bHG2Gt" id="t55zHzIVMXnwhdZF8sP2-116">
          <mxCell style="html=1;overflow=block;blockSpacing=1;whiteSpace=wrap;strokeColor=none;fillColor=none;whiteSpace=wrap;fontSize=18;fontColor=#333333;align=center;spacing=0;strokeOpacity=100;fillOpacity=100;rounded=1;absoluteArcSize=1;arcSize=7;strokeWidth=2;" parent="1" vertex="1">
            <mxGeometry x="1451.68" y="1138" width="42" height="25" as="geometry" />
          </mxCell>
        </UserObject>
        <UserObject label="(0,N)" lucidchartObjectId="5Z11Rwgz-~jb" id="t55zHzIVMXnwhdZF8sP2-117">
          <mxCell style="html=1;overflow=block;blockSpacing=1;whiteSpace=wrap;strokeColor=none;fillColor=none;whiteSpace=wrap;fontSize=18;fontColor=#333333;align=center;spacing=0;strokeOpacity=100;fillOpacity=100;rounded=1;absoluteArcSize=1;arcSize=7;strokeWidth=2;" parent="1" vertex="1">
            <mxGeometry x="1632.18" y="742" width="42" height="25" as="geometry" />
          </mxCell>
        </UserObject>
        <UserObject label="(1,1)" lucidchartObjectId="5Z11lqC8F.8T" id="t55zHzIVMXnwhdZF8sP2-118">
          <mxCell style="html=1;overflow=block;blockSpacing=1;whiteSpace=wrap;strokeColor=none;fillColor=none;whiteSpace=wrap;fontSize=18;fontColor=#333333;align=center;spacing=0;strokeOpacity=100;fillOpacity=100;rounded=1;absoluteArcSize=1;arcSize=7;strokeWidth=2;" parent="1" vertex="1">
            <mxGeometry x="1451.18" y="742" width="42" height="25" as="geometry" />
          </mxCell>
        </UserObject>
        <UserObject label="(2,N)" lucidchartObjectId="5Z11NiZtwywj" id="t55zHzIVMXnwhdZF8sP2-119">
          <mxCell style="html=1;overflow=block;blockSpacing=1;whiteSpace=wrap;strokeColor=none;fillColor=none;whiteSpace=wrap;fontSize=18;fontColor=#333333;align=center;spacing=0;strokeOpacity=100;fillOpacity=100;rounded=1;absoluteArcSize=1;arcSize=7;strokeWidth=2;" parent="1" vertex="1">
            <mxGeometry x="1416.68" y="480" width="42" height="25" as="geometry" />
          </mxCell>
        </UserObject>
        <UserObject label="(0,N)" lucidchartObjectId="5Z11.cNyT~L." id="t55zHzIVMXnwhdZF8sP2-120">
          <mxCell style="html=1;overflow=block;blockSpacing=1;whiteSpace=wrap;strokeColor=none;fillColor=none;whiteSpace=wrap;fontSize=18;fontColor=#333333;align=center;spacing=0;strokeOpacity=100;fillOpacity=100;rounded=1;absoluteArcSize=1;arcSize=7;strokeWidth=2;" parent="1" vertex="1">
            <mxGeometry x="1603.18" y="473" width="42" height="25" as="geometry" />
          </mxCell>
        </UserObject>
        <UserObject label="(0,N)" lucidchartObjectId="5Z11-8PXW0iO" id="t55zHzIVMXnwhdZF8sP2-121">
          <mxCell style="html=1;overflow=block;blockSpacing=1;whiteSpace=wrap;strokeColor=none;fillColor=none;whiteSpace=wrap;fontSize=18;fontColor=#333333;align=center;spacing=0;strokeOpacity=100;fillOpacity=100;rounded=1;absoluteArcSize=1;arcSize=7;strokeWidth=2;" parent="1" vertex="1">
            <mxGeometry x="1383.18" y="1041" width="42" height="25" as="geometry" />
          </mxCell>
        </UserObject>
        <UserObject label="(1,1)" lucidchartObjectId="5Z115IxPwP-9" id="t55zHzIVMXnwhdZF8sP2-122">
          <mxCell style="html=1;overflow=block;blockSpacing=1;whiteSpace=wrap;strokeColor=none;fillColor=none;whiteSpace=wrap;fontSize=18;fontColor=#333333;align=center;spacing=0;strokeOpacity=100;fillOpacity=100;rounded=1;absoluteArcSize=1;arcSize=7;strokeWidth=2;" parent="1" vertex="1">
            <mxGeometry x="1196.1200000000001" y="1041" width="42" height="25" as="geometry" />
          </mxCell>
        </UserObject>
        <UserObject label="(0,N)" lucidchartObjectId="5Z11geeHzoCO" id="t55zHzIVMXnwhdZF8sP2-123">
          <mxCell style="html=1;overflow=block;blockSpacing=1;whiteSpace=wrap;strokeColor=none;fillColor=none;whiteSpace=wrap;fontSize=18;fontColor=#333333;align=center;spacing=0;strokeOpacity=100;fillOpacity=100;rounded=1;absoluteArcSize=1;arcSize=7;strokeWidth=2;" parent="1" vertex="1">
            <mxGeometry x="1034.18" y="918" width="42" height="25" as="geometry" />
          </mxCell>
        </UserObject>
        <UserObject label="(1,1)" lucidchartObjectId="5Z11Pki35EC_" id="t55zHzIVMXnwhdZF8sP2-124">
          <mxCell style="html=1;overflow=block;blockSpacing=1;whiteSpace=wrap;strokeColor=none;fillColor=none;whiteSpace=wrap;fontSize=18;fontColor=#333333;align=center;spacing=0;strokeOpacity=100;fillOpacity=100;rounded=1;absoluteArcSize=1;arcSize=7;strokeWidth=2;" parent="1" vertex="1">
            <mxGeometry x="1134.18" y="654.5" width="42" height="25" as="geometry" />
          </mxCell>
        </UserObject>
        <UserObject label="(0,N)" lucidchartObjectId="5Z11n-Kphtv1" id="t55zHzIVMXnwhdZF8sP2-125">
          <mxCell style="html=1;overflow=block;blockSpacing=1;whiteSpace=wrap;strokeColor=none;fillColor=none;whiteSpace=wrap;fontSize=18;fontColor=#333333;align=center;spacing=0;strokeOpacity=100;fillOpacity=100;rounded=1;absoluteArcSize=1;arcSize=7;strokeWidth=2;" parent="1" vertex="1">
            <mxGeometry x="1498.18" y="809" width="42" height="25" as="geometry" />
          </mxCell>
        </UserObject>
        <UserObject label="(1,1)" lucidchartObjectId="5Z11QqX8pwJ8" id="t55zHzIVMXnwhdZF8sP2-126">
          <mxCell style="html=1;overflow=block;blockSpacing=1;whiteSpace=wrap;strokeColor=none;fillColor=none;whiteSpace=wrap;fontSize=18;fontColor=#333333;align=center;spacing=0;strokeOpacity=100;fillOpacity=100;rounded=1;absoluteArcSize=1;arcSize=7;strokeWidth=2;" parent="1" vertex="1">
            <mxGeometry x="1314.18" y="806" width="42" height="25" as="geometry" />
          </mxCell>
        </UserObject>
        <UserObject label="(0,N)" lucidchartObjectId="5Z112MxyFUIE" id="t55zHzIVMXnwhdZF8sP2-127">
          <mxCell style="html=1;overflow=block;blockSpacing=1;whiteSpace=wrap;strokeColor=none;fillColor=none;whiteSpace=wrap;fontSize=18;fontColor=#333333;align=center;spacing=0;strokeOpacity=100;fillOpacity=100;rounded=1;absoluteArcSize=1;arcSize=7;strokeWidth=2;" parent="1" vertex="1">
            <mxGeometry x="1722.68" y="329" width="42" height="25" as="geometry" />
          </mxCell>
        </UserObject>
        <UserObject label="(1,1)" lucidchartObjectId="5Z11dpsCaAYO" id="t55zHzIVMXnwhdZF8sP2-128">
          <mxCell style="html=1;overflow=block;blockSpacing=1;whiteSpace=wrap;strokeColor=none;fillColor=none;whiteSpace=wrap;fontSize=18;fontColor=#333333;align=center;spacing=0;strokeOpacity=100;fillOpacity=100;rounded=1;absoluteArcSize=1;arcSize=39;strokeWidth=2;" parent="1" vertex="1">
            <mxGeometry x="1190.0000000000002" y="438" width="42" height="25" as="geometry" />
          </mxCell>
        </UserObject>
        <UserObject label="(1,N)" lucidchartObjectId="5Z11iKSAvQ5." id="t55zHzIVMXnwhdZF8sP2-129">
          <mxCell style="html=1;overflow=block;blockSpacing=1;whiteSpace=wrap;strokeColor=none;fillColor=none;whiteSpace=wrap;fontSize=18;fontColor=#333333;align=center;spacing=0;strokeOpacity=100;fillOpacity=100;rounded=1;absoluteArcSize=1;arcSize=7;strokeWidth=2;" parent="1" vertex="1">
            <mxGeometry x="1816.18" y="330" width="42" height="25" as="geometry" />
          </mxCell>
        </UserObject>
        <UserObject label="(1,1)" lucidchartObjectId="5Z113n8Mxfh6" id="t55zHzIVMXnwhdZF8sP2-130">
          <mxCell style="html=1;overflow=block;blockSpacing=1;whiteSpace=wrap;strokeColor=none;fillColor=none;whiteSpace=wrap;fontSize=18;fontColor=#333333;align=center;spacing=0;strokeOpacity=100;fillOpacity=100;rounded=1;absoluteArcSize=1;arcSize=7;strokeWidth=2;" parent="1" vertex="1">
            <mxGeometry x="954.1800000000001" y="854.25" width="42" height="25" as="geometry" />
          </mxCell>
        </UserObject>
        <mxCell id="t55zHzIVMXnwhdZF8sP2-131" value="" style="endArrow=none;html=1;startArrow=oval;startFill=0;strokeColor=#5e5e5e;entryX=-0.004;entryY=0.951;entryDx=0;entryDy=0;entryPerimeter=0;" parent="1" edge="1">
          <mxGeometry width="50" height="50" relative="1" as="geometry">
            <mxPoint x="1654.8699999999997" y="926.1899999999991" as="sourcePoint" />
            <mxPoint x="1699.1779999999997" y="926.085" as="targetPoint" />
          </mxGeometry>
        </mxCell>
        <mxCell id="t55zHzIVMXnwhdZF8sP2-132" value="password" style="edgeLabel;html=1;align=center;verticalAlign=middle;resizable=0;points=[];fontSize=17;fontStyle=1" parent="t55zHzIVMXnwhdZF8sP2-131" vertex="1" connectable="0">
          <mxGeometry x="-0.4925" relative="1" as="geometry">
            <mxPoint x="-68.22" y="-1" as="offset" />
          </mxGeometry>
        </mxCell>
        <mxCell id="t55zHzIVMXnwhdZF8sP2-133" value="" style="endArrow=none;html=1;startArrow=oval;startFill=1;strokeColor=#5e5e5e;entryX=0.003;entryY=0.092;entryDx=0;entryDy=0;entryPerimeter=0;" parent="1" target="t55zHzIVMXnwhdZF8sP2-67" edge="1">
          <mxGeometry width="50" height="50" relative="1" as="geometry">
            <mxPoint x="1200.03" y="1161.5200000000004" as="sourcePoint" />
            <mxPoint x="1245.684" y="1161.9099999999999" as="targetPoint" />
          </mxGeometry>
        </mxCell>
        <mxCell id="t55zHzIVMXnwhdZF8sP2-134" value="ID" style="edgeLabel;html=1;align=center;verticalAlign=middle;resizable=0;points=[];fontSize=17;fontStyle=5" parent="t55zHzIVMXnwhdZF8sP2-133" vertex="1" connectable="0">
          <mxGeometry x="-0.4925" relative="1" as="geometry">
            <mxPoint x="-63.22" as="offset" />
          </mxGeometry>
        </mxCell>
        <mxCell id="t55zHzIVMXnwhdZF8sP2-135" value="" style="endArrow=none;html=1;startArrow=oval;startFill=1;strokeColor=#5e5e5e;entryX=-0.004;entryY=0.403;entryDx=0;entryDy=0;entryPerimeter=0;" parent="1" target="t55zHzIVMXnwhdZF8sP2-67" edge="1">
          <mxGeometry width="50" height="50" relative="1" as="geometry">
            <mxPoint x="1200.74" y="1201.0000000000005" as="sourcePoint" />
            <mxPoint x="1246.0040000000001" y="1211.65" as="targetPoint" />
          </mxGeometry>
        </mxCell>
        <mxCell id="t55zHzIVMXnwhdZF8sP2-136" value="contenuto" style="edgeLabel;html=1;align=center;verticalAlign=middle;resizable=0;points=[];fontSize=17;fontStyle=1" parent="t55zHzIVMXnwhdZF8sP2-135" vertex="1" connectable="0">
          <mxGeometry x="-0.4925" relative="1" as="geometry">
            <mxPoint x="-62.22" y="-3" as="offset" />
          </mxGeometry>
        </mxCell>
        <mxCell id="t55zHzIVMXnwhdZF8sP2-137" value="" style="endArrow=none;html=1;startArrow=oval;startFill=0;strokeColor=#5e5e5e;entryX=1.006;entryY=0.577;entryDx=0;entryDy=0;entryPerimeter=0;" parent="1" target="t55zHzIVMXnwhdZF8sP2-34" edge="1">
          <mxGeometry width="50" height="50" relative="1" as="geometry">
            <mxPoint x="1072.1200000000006" y="982.75" as="sourcePoint" />
            <mxPoint x="1082.1200000000001" y="969.75" as="targetPoint" />
            <Array as="points" />
          </mxGeometry>
        </mxCell>
        <mxCell id="t55zHzIVMXnwhdZF8sP2-138" value="dataInizio" style="edgeLabel;html=1;align=center;verticalAlign=middle;resizable=0;points=[];fontSize=17;fontStyle=1" parent="t55zHzIVMXnwhdZF8sP2-137" vertex="1" connectable="0">
          <mxGeometry x="-0.4925" relative="1" as="geometry">
            <mxPoint x="57.9" y="-1.9600000000000009" as="offset" />
          </mxGeometry>
        </mxCell>
        <mxCell id="t55zHzIVMXnwhdZF8sP2-139" value="" style="endArrow=none;html=1;startArrow=oval;startFill=1;strokeColor=#5e5e5e;entryX=0;entryY=0.821;entryDx=0;entryDy=0;entryPerimeter=0;" parent="1" edge="1">
          <mxGeometry width="50" height="50" relative="1" as="geometry">
            <mxPoint x="1654.5300000000004" y="906.0799999999995" as="sourcePoint" />
            <mxPoint x="1700.18" y="906.1249999999995" as="targetPoint" />
          </mxGeometry>
        </mxCell>
        <mxCell id="t55zHzIVMXnwhdZF8sP2-140" value="&lt;span style=&quot;font-size: 17px;&quot;&gt;username&lt;/span&gt;" style="edgeLabel;html=1;align=center;verticalAlign=middle;resizable=0;points=[];fontSize=17;fontStyle=1" parent="t55zHzIVMXnwhdZF8sP2-139" vertex="1" connectable="0">
          <mxGeometry x="-0.4925" relative="1" as="geometry">
            <mxPoint x="-67.22" as="offset" />
          </mxGeometry>
        </mxCell>
        <mxCell id="t55zHzIVMXnwhdZF8sP2-141" value="" style="endArrow=none;html=1;startArrow=oval;startFill=1;strokeColor=#5e5e5e;entryX=0;entryY=0.288;entryDx=0;entryDy=0;entryPerimeter=0;" parent="1" edge="1">
          <mxGeometry width="50" height="50" relative="1" as="geometry">
            <mxPoint x="1200.03" y="1180.2599999999998" as="sourcePoint" />
            <mxPoint x="1245.6799999999996" y="1180.5480000000002" as="targetPoint" />
          </mxGeometry>
        </mxCell>
        <mxCell id="t55zHzIVMXnwhdZF8sP2-142" value="dataInvio" style="edgeLabel;html=1;align=center;verticalAlign=middle;resizable=0;points=[];fontSize=17;fontStyle=1" parent="t55zHzIVMXnwhdZF8sP2-141" vertex="1" connectable="0">
          <mxGeometry x="-0.4925" relative="1" as="geometry">
            <mxPoint x="-62.22" as="offset" />
          </mxGeometry>
        </mxCell>
        <mxCell id="t55zHzIVMXnwhdZF8sP2-143" value="" style="endArrow=none;html=1;startArrow=oval;startFill=0;strokeColor=#5e5e5e;entryX=0.004;entryY=0.485;entryDx=0;entryDy=0;entryPerimeter=0;" parent="1" edge="1">
          <mxGeometry width="50" height="50" relative="1" as="geometry">
            <mxPoint x="1687.2900000000006" y="419.90999999999985" as="sourcePoint" />
            <mxPoint x="1733.1760000000002" y="419.75999999999976" as="targetPoint" />
          </mxGeometry>
        </mxCell>
        <mxCell id="t55zHzIVMXnwhdZF8sP2-144" value="isPremium" style="edgeLabel;html=1;align=center;verticalAlign=middle;resizable=0;points=[];fontSize=17;fontStyle=1;autosize=0;resizeWidth=0;" parent="t55zHzIVMXnwhdZF8sP2-143" vertex="1" connectable="0">
          <mxGeometry x="-0.4925" relative="1" as="geometry">
            <mxPoint x="-73.22" y="-2" as="offset" />
          </mxGeometry>
        </mxCell>
        <mxCell id="t55zHzIVMXnwhdZF8sP2-145" value="" style="endArrow=none;html=1;startArrow=oval;startFill=0;strokeColor=#5e5e5e;entryX=0;entryY=0.889;entryDx=0;entryDy=0;entryPerimeter=0;strokeWidth=1;" parent="1" edge="1">
          <mxGeometry width="50" height="50" relative="1" as="geometry">
            <mxPoint x="1687.8500000000001" y="440" as="sourcePoint" />
            <mxPoint x="1733.18" y="440.0140000000001" as="targetPoint" />
          </mxGeometry>
        </mxCell>
        <mxCell id="t55zHzIVMXnwhdZF8sP2-146" value="nsfw" style="edgeLabel;html=1;align=center;verticalAlign=middle;resizable=0;points=[];fontSize=17;fontStyle=1;autosize=0;resizeWidth=0;" parent="t55zHzIVMXnwhdZF8sP2-145" vertex="1" connectable="0">
          <mxGeometry x="-0.4925" relative="1" as="geometry">
            <mxPoint x="-74.22" y="-2" as="offset" />
          </mxGeometry>
        </mxCell>
        <mxCell id="t55zHzIVMXnwhdZF8sP2-147" value="" style="endArrow=oval;html=1;startArrow=none;startFill=0;strokeColor=#5e5e5e;endFill=1;" parent="1" edge="1">
          <mxGeometry width="50" height="50" relative="1" as="geometry">
            <mxPoint x="2500.1800000000003" y="829.3600000000001" as="sourcePoint" />
            <mxPoint x="2546.1800000000003" y="829.3600000000001" as="targetPoint" />
          </mxGeometry>
        </mxCell>
        <mxCell id="t55zHzIVMXnwhdZF8sP2-148" value="ID" style="edgeLabel;html=1;align=center;verticalAlign=middle;resizable=0;points=[];fontSize=17;fontStyle=1;autosize=0;resizeWidth=0;" parent="t55zHzIVMXnwhdZF8sP2-147" vertex="1" connectable="0">
          <mxGeometry x="-0.4925" relative="1" as="geometry">
            <mxPoint x="102.33000000000001" y="-1.02" as="offset" />
          </mxGeometry>
        </mxCell>
        <mxCell id="t55zHzIVMXnwhdZF8sP2-149" value="" style="endArrow=oval;html=1;startArrow=none;startFill=0;strokeColor=#5e5e5e;endFill=0;" parent="1" edge="1">
          <mxGeometry width="50" height="50" relative="1" as="geometry">
            <mxPoint x="2500.1800000000003" y="870.5100000000002" as="sourcePoint" />
            <mxPoint x="2546.1800000000003" y="870.3600000000006" as="targetPoint" />
          </mxGeometry>
        </mxCell>
        <mxCell id="t55zHzIVMXnwhdZF8sP2-150" value="dataCreazione" style="edgeLabel;html=1;align=center;verticalAlign=middle;resizable=0;points=[];fontSize=17;fontStyle=1;autosize=0;resizeWidth=0;" parent="t55zHzIVMXnwhdZF8sP2-149" vertex="1" connectable="0">
          <mxGeometry x="-0.4925" relative="1" as="geometry">
            <mxPoint x="103.33000000000001" y="-1.02" as="offset" />
          </mxGeometry>
        </mxCell>
        <mxCell id="t55zHzIVMXnwhdZF8sP2-151" value="" style="endArrow=oval;html=1;startArrow=none;startFill=0;strokeColor=#5e5e5e;endFill=0;" parent="1" edge="1">
          <mxGeometry width="50" height="50" relative="1" as="geometry">
            <mxPoint x="2500.1800000000003" y="850" as="sourcePoint" />
            <mxPoint x="2546.1800000000003" y="850.52" as="targetPoint" />
          </mxGeometry>
        </mxCell>
        <mxCell id="t55zHzIVMXnwhdZF8sP2-152" value="titolo" style="edgeLabel;html=1;align=center;verticalAlign=middle;resizable=0;points=[];fontSize=17;fontStyle=1;autosize=0;resizeWidth=0;" parent="t55zHzIVMXnwhdZF8sP2-151" vertex="1" connectable="0">
          <mxGeometry x="-0.4925" relative="1" as="geometry">
            <mxPoint x="101.33000000000001" y="-1.02" as="offset" />
          </mxGeometry>
        </mxCell>
        <mxCell id="t55zHzIVMXnwhdZF8sP2-153" value="" style="endArrow=oval;html=1;startArrow=none;startFill=0;strokeColor=#5e5e5e;endFill=0;" parent="1" edge="1">
          <mxGeometry width="50" height="50" relative="1" as="geometry">
            <mxPoint x="2500.1800000000003" y="890.3800000000001" as="sourcePoint" />
            <mxPoint x="2546.1800000000003" y="890.4700000000003" as="targetPoint" />
          </mxGeometry>
        </mxCell>
        <mxCell id="t55zHzIVMXnwhdZF8sP2-154" value="contenuto" style="edgeLabel;html=1;align=center;verticalAlign=middle;resizable=0;points=[];fontSize=17;fontStyle=1;autosize=0;resizeWidth=0;" parent="t55zHzIVMXnwhdZF8sP2-153" vertex="1" connectable="0">
          <mxGeometry x="-0.4925" relative="1" as="geometry">
            <mxPoint x="103.33000000000001" y="-1.02" as="offset" />
          </mxGeometry>
        </mxCell>
        <mxCell id="t55zHzIVMXnwhdZF8sP2-155" value="" style="endArrow=oval;html=1;startArrow=none;startFill=0;strokeColor=#5e5e5e;endFill=1;" parent="1" edge="1">
          <mxGeometry width="50" height="50" relative="1" as="geometry">
            <mxPoint x="2288.8700000000003" y="1260.02" as="sourcePoint" />
            <mxPoint x="2334.8700000000003" y="1260.02" as="targetPoint" />
          </mxGeometry>
        </mxCell>
        <mxCell id="t55zHzIVMXnwhdZF8sP2-156" value="ID" style="edgeLabel;html=1;align=center;verticalAlign=middle;resizable=0;points=[];fontSize=17;fontStyle=1;autosize=0;resizeWidth=0;" parent="t55zHzIVMXnwhdZF8sP2-155" vertex="1" connectable="0">
          <mxGeometry x="-0.4925" relative="1" as="geometry">
            <mxPoint x="102.33000000000001" y="-1.02" as="offset" />
          </mxGeometry>
        </mxCell>
        <mxCell id="t55zHzIVMXnwhdZF8sP2-157" value="" style="endArrow=oval;html=1;startArrow=none;startFill=0;strokeColor=#5e5e5e;endFill=0;" parent="1" edge="1">
          <mxGeometry width="50" height="50" relative="1" as="geometry">
            <mxPoint x="2288.8700000000003" y="1301.17" as="sourcePoint" />
            <mxPoint x="2334.8700000000003" y="1301.0200000000004" as="targetPoint" />
          </mxGeometry>
        </mxCell>
        <mxCell id="t55zHzIVMXnwhdZF8sP2-158" value="&lt;span style=&quot;font-size: 17px;&quot;&gt;contenuto&lt;/span&gt;" style="edgeLabel;html=1;align=center;verticalAlign=middle;resizable=0;points=[];fontSize=17;fontStyle=1" parent="t55zHzIVMXnwhdZF8sP2-157" vertex="1" connectable="0">
          <mxGeometry x="0.2733" relative="1" as="geometry">
            <mxPoint x="86.48" y="-1.55" as="offset" />
          </mxGeometry>
        </mxCell>
        <mxCell id="t55zHzIVMXnwhdZF8sP2-159" value="" style="endArrow=oval;html=1;startArrow=none;startFill=0;strokeColor=#5e5e5e;endFill=0;exitX=0.995;exitY=0.537;exitDx=0;exitDy=0;exitPerimeter=0;" parent="1" edge="1">
          <mxGeometry width="50" height="50" relative="1" as="geometry">
            <mxPoint x="2288.1750000000006" y="1280.6819999999998" as="sourcePoint" />
            <mxPoint x="2334.8700000000003" y="1280.5399999999995" as="targetPoint" />
          </mxGeometry>
        </mxCell>
        <mxCell id="t55zHzIVMXnwhdZF8sP2-160" value="dataCommento" style="edgeLabel;html=1;align=center;verticalAlign=middle;resizable=0;points=[];fontSize=17;fontStyle=1;autosize=0;resizeWidth=0;" parent="t55zHzIVMXnwhdZF8sP2-159" vertex="1" connectable="0">
          <mxGeometry x="-0.4925" relative="1" as="geometry">
            <mxPoint x="101.33000000000001" y="-1.02" as="offset" />
          </mxGeometry>
        </mxCell>
        <mxCell id="t55zHzIVMXnwhdZF8sP2-161" value="" style="endArrow=oval;html=1;startArrow=none;startFill=0;strokeColor=#5e5e5e;endFill=0;" parent="1" edge="1">
          <mxGeometry width="50" height="50" relative="1" as="geometry">
            <mxPoint x="3141.0000000000005" y="842.7600000000002" as="sourcePoint" />
            <mxPoint x="3186.9999999999995" y="842.6100000000001" as="targetPoint" />
          </mxGeometry>
        </mxCell>
        <mxCell id="t55zHzIVMXnwhdZF8sP2-162" value="descrizione" style="edgeLabel;html=1;align=center;verticalAlign=middle;resizable=0;points=[];fontSize=17;fontStyle=1;autosize=0;resizeWidth=0;" parent="t55zHzIVMXnwhdZF8sP2-161" vertex="1" connectable="0">
          <mxGeometry x="-0.4925" relative="1" as="geometry">
            <mxPoint x="103.33000000000001" y="-1.02" as="offset" />
          </mxGeometry>
        </mxCell>
        <mxCell id="t55zHzIVMXnwhdZF8sP2-163" value="" style="endArrow=oval;html=1;startArrow=none;startFill=0;strokeColor=#5e5e5e;endFill=0;" parent="1" edge="1">
          <mxGeometry width="50" height="50" relative="1" as="geometry">
            <mxPoint x="3141.0000000000005" y="823.0899999999997" as="sourcePoint" />
            <mxPoint x="3186.9999999999995" y="823.6100000000006" as="targetPoint" />
          </mxGeometry>
        </mxCell>
        <mxCell id="t55zHzIVMXnwhdZF8sP2-164" value="nome" style="edgeLabel;html=1;align=center;verticalAlign=middle;resizable=0;points=[];fontSize=17;fontStyle=1;autosize=0;resizeWidth=0;" parent="t55zHzIVMXnwhdZF8sP2-163" vertex="1" connectable="0">
          <mxGeometry x="-0.4925" relative="1" as="geometry">
            <mxPoint x="101.33000000000001" y="-1.02" as="offset" />
          </mxGeometry>
        </mxCell>
        <mxCell id="t55zHzIVMXnwhdZF8sP2-165" value="" style="endArrow=oval;html=1;startArrow=none;startFill=0;strokeColor=#5e5e5e;endFill=0;" parent="1" edge="1">
          <mxGeometry width="50" height="50" relative="1" as="geometry">
            <mxPoint x="3141.0000000000005" y="862.52" as="sourcePoint" />
            <mxPoint x="3186.9999999999995" y="862.6100000000001" as="targetPoint" />
          </mxGeometry>
        </mxCell>
        <mxCell id="t55zHzIVMXnwhdZF8sP2-166" value="percorso" style="edgeLabel;html=1;align=center;verticalAlign=middle;resizable=0;points=[];fontSize=17;fontStyle=1;autosize=0;resizeWidth=0;" parent="t55zHzIVMXnwhdZF8sP2-165" vertex="1" connectable="0">
          <mxGeometry x="-0.4925" relative="1" as="geometry">
            <mxPoint x="103.33000000000001" y="-1.02" as="offset" />
          </mxGeometry>
        </mxCell>
        <UserObject label="(1,1)" lucidchartObjectId="5Z112gDtx1PO" id="t55zHzIVMXnwhdZF8sP2-167">
          <mxCell style="html=1;overflow=block;blockSpacing=1;whiteSpace=wrap;strokeColor=none;fillColor=none;whiteSpace=wrap;fontSize=18;fontColor=#333333;align=center;spacing=0;strokeOpacity=100;fillOpacity=100;rounded=1;absoluteArcSize=1;arcSize=7;strokeWidth=2;" parent="1" vertex="1">
            <mxGeometry x="2115.5600000000004" y="1620" width="42" height="25" as="geometry" />
          </mxCell>
        </UserObject>
        <mxCell id="t55zHzIVMXnwhdZF8sP2-168" value="" style="endArrow=oval;html=1;startArrow=none;startFill=0;strokeColor=#5e5e5e;strokeWidth=1;endFill=0;" parent="1" edge="1">
          <mxGeometry width="50" height="50" relative="1" as="geometry">
            <mxPoint x="2271.1800000000003" y="1614.5" as="sourcePoint" />
            <mxPoint x="2271.1800000000003" y="1654.5" as="targetPoint" />
            <Array as="points">
              <mxPoint x="2271.1800000000003" y="1634.5" />
            </Array>
          </mxGeometry>
        </mxCell>
        <mxCell id="t55zHzIVMXnwhdZF8sP2-169" value="dataAcquisto" style="edgeLabel;html=1;align=center;verticalAlign=middle;resizable=0;points=[];fontSize=17;fontStyle=1;autosize=0;resizeWidth=0;" parent="t55zHzIVMXnwhdZF8sP2-168" vertex="1" connectable="0">
          <mxGeometry x="-0.4925" relative="1" as="geometry">
            <mxPoint x="8.881784197001252e-15" y="46" as="offset" />
          </mxGeometry>
        </mxCell>
        <mxCell id="t55zHzIVMXnwhdZF8sP2-170" value="" style="endArrow=oval;html=1;startArrow=none;startFill=0;strokeColor=#5e5e5e;strokeWidth=1;endFill=0;" parent="1" edge="1">
          <mxGeometry width="50" height="50" relative="1" as="geometry">
            <mxPoint x="2240.2400000000007" y="1612.9700000000003" as="sourcePoint" />
            <mxPoint x="2240.2400000000007" y="1653.9700000000003" as="targetPoint" />
          </mxGeometry>
        </mxCell>
        <mxCell id="t55zHzIVMXnwhdZF8sP2-171" value="tipo" style="edgeLabel;html=1;align=center;verticalAlign=middle;resizable=0;points=[];fontSize=17;fontStyle=1;autosize=0;resizeWidth=0;" parent="t55zHzIVMXnwhdZF8sP2-170" vertex="1" connectable="0">
          <mxGeometry x="-0.4925" relative="1" as="geometry">
            <mxPoint x="-23.059999999999985" y="30.629999999999995" as="offset" />
          </mxGeometry>
        </mxCell>
        <mxCell id="t55zHzIVMXnwhdZF8sP2-174" value="" style="endArrow=oval;html=1;startArrow=none;startFill=0;endFill=1;strokeColor=#5E5E5E;" parent="1" edge="1">
          <mxGeometry width="50" height="50" relative="1" as="geometry">
            <mxPoint x="1475.18" y="619" as="sourcePoint" />
            <mxPoint x="1521.18" y="619.52" as="targetPoint" />
          </mxGeometry>
        </mxCell>
        <mxCell id="t55zHzIVMXnwhdZF8sP2-175" value="nome" style="edgeLabel;html=1;align=center;verticalAlign=middle;resizable=0;points=[];fontSize=17;fontStyle=1;autosize=0;resizeWidth=0;" parent="t55zHzIVMXnwhdZF8sP2-174" vertex="1" connectable="0">
          <mxGeometry x="-0.4925" relative="1" as="geometry">
            <mxPoint x="67.27000000000001" y="-0.13" as="offset" />
          </mxGeometry>
        </mxCell>
        <UserObject label="" lucidchartObjectId="5Z11uqkwDgph" id="t55zHzIVMXnwhdZF8sP2-176">
          <mxCell style="html=1;jettySize=18;whiteSpace=wrap;fontSize=11;strokeColor=#5E5E5E;rounded=1;arcSize=12;edgeStyle=orthogonalEdgeStyle;startArrow=none;;endArrow=oval;endFill=1;;exitX=1;exitY=0.25;exitDx=0;exitDy=0;" parent="1" source="t55zHzIVMXnwhdZF8sP2-45" edge="1">
            <mxGeometry width="100" height="100" relative="1" as="geometry">
              <Array as="points">
                <mxPoint x="1493.8" y="601" />
                <mxPoint x="1493.8" y="710" />
                <mxPoint x="1363.8" y="710" />
              </Array>
              <mxPoint x="1363.8" y="710" as="targetPoint" />
              <mxPoint x="1503.8" y="600" as="sourcePoint" />
            </mxGeometry>
          </mxCell>
        </UserObject>
        <mxCell id="t55zHzIVMXnwhdZF8sP2-182" value="" style="endArrow=none;html=1;startArrow=oval;startFill=1;strokeColor=#5e5e5e;entryX=0.003;entryY=0.092;entryDx=0;entryDy=0;entryPerimeter=0;" parent="1" edge="1">
          <mxGeometry width="50" height="50" relative="1" as="geometry">
            <mxPoint x="1687.1100000000004" y="360.88" as="sourcePoint" />
            <mxPoint x="1733.1769999999995" y="360.9520000000001" as="targetPoint" />
          </mxGeometry>
        </mxCell>
        <mxCell id="t55zHzIVMXnwhdZF8sP2-183" value="nome" style="edgeLabel;html=1;align=center;verticalAlign=middle;resizable=0;points=[];fontSize=17;fontStyle=1;autosize=0;resizeWidth=0;" parent="t55zHzIVMXnwhdZF8sP2-182" vertex="1" connectable="0">
          <mxGeometry x="-0.4925" relative="1" as="geometry">
            <mxPoint x="-74.22" y="-2" as="offset" />
          </mxGeometry>
        </mxCell>
        <mxCell id="t55zHzIVMXnwhdZF8sP2-184" value="" style="endArrow=none;html=1;startArrow=oval;startFill=0;strokeColor=#5e5e5e;entryX=0.004;entryY=0.485;entryDx=0;entryDy=0;entryPerimeter=0;" parent="1" edge="1">
          <mxGeometry width="50" height="50" relative="1" as="geometry">
            <mxPoint x="1687.2900000000006" y="400.1500000000001" as="sourcePoint" />
            <mxPoint x="1733.1760000000002" y="400" as="targetPoint" />
          </mxGeometry>
        </mxCell>
        <mxCell id="t55zHzIVMXnwhdZF8sP2-185" value="descrizione" style="edgeLabel;html=1;align=center;verticalAlign=middle;resizable=0;points=[];fontSize=17;fontStyle=1;autosize=0;resizeWidth=0;" parent="t55zHzIVMXnwhdZF8sP2-184" vertex="1" connectable="0">
          <mxGeometry x="-0.4925" relative="1" as="geometry">
            <mxPoint x="-73.22" y="-2" as="offset" />
          </mxGeometry>
        </mxCell>
        <mxCell id="t55zHzIVMXnwhdZF8sP2-186" value="" style="endArrow=none;html=1;startArrow=oval;startFill=0;strokeColor=#5e5e5e;entryX=0;entryY=0.288;entryDx=0;entryDy=0;entryPerimeter=0;" parent="1" edge="1">
          <mxGeometry width="50" height="50" relative="1" as="geometry">
            <mxPoint x="1687.53" y="380" as="sourcePoint" />
            <mxPoint x="1733.1800000000005" y="380.28799999999956" as="targetPoint" />
          </mxGeometry>
        </mxCell>
        <mxCell id="t55zHzIVMXnwhdZF8sP2-187" value="dataCreazione" style="edgeLabel;html=1;align=center;verticalAlign=middle;resizable=0;points=[];fontSize=17;fontStyle=1;autosize=0;resizeWidth=0;" parent="t55zHzIVMXnwhdZF8sP2-186" vertex="1" connectable="0">
          <mxGeometry x="-0.4925" relative="1" as="geometry">
            <mxPoint x="-75.22" y="-2" as="offset" />
          </mxGeometry>
        </mxCell>
        <mxCell id="t55zHzIVMXnwhdZF8sP2-188" value="" style="endArrow=none;html=1;startArrow=oval;startFill=0;strokeColor=#5e5e5e;entryX=0.003;entryY=0.092;entryDx=0;entryDy=0;entryPerimeter=0;" parent="1" edge="1">
          <mxGeometry width="50" height="50" relative="1" as="geometry">
            <mxPoint x="1654.1100000000004" y="946.1599999999999" as="sourcePoint" />
            <mxPoint x="1700.1769999999995" y="946.232" as="targetPoint" />
          </mxGeometry>
        </mxCell>
        <mxCell id="t55zHzIVMXnwhdZF8sP2-189" value="email" style="edgeLabel;html=1;align=center;verticalAlign=middle;resizable=0;points=[];fontSize=17;fontStyle=1;autosize=0;resizeWidth=0;" parent="t55zHzIVMXnwhdZF8sP2-188" vertex="1" connectable="0">
          <mxGeometry x="-0.4925" relative="1" as="geometry">
            <mxPoint x="-67.65" y="-2.31" as="offset" />
          </mxGeometry>
        </mxCell>
        <mxCell id="t55zHzIVMXnwhdZF8sP2-190" value="" style="endArrow=none;html=1;startArrow=oval;startFill=0;strokeColor=#5e5e5e;entryX=0.004;entryY=0.485;entryDx=0;entryDy=0;entryPerimeter=0;" parent="1" edge="1">
          <mxGeometry width="50" height="50" relative="1" as="geometry">
            <mxPoint x="1654.2900000000006" y="986.44" as="sourcePoint" />
            <mxPoint x="1700.1760000000002" y="986.29" as="targetPoint" />
          </mxGeometry>
        </mxCell>
        <mxCell id="t55zHzIVMXnwhdZF8sP2-191" value="isAdmin" style="edgeLabel;html=1;align=center;verticalAlign=middle;resizable=0;points=[];fontSize=17;fontStyle=1;autosize=0;resizeWidth=0;" parent="t55zHzIVMXnwhdZF8sP2-190" vertex="1" connectable="0">
          <mxGeometry x="-0.4925" relative="1" as="geometry">
            <mxPoint x="-68.22" y="-2" as="offset" />
          </mxGeometry>
        </mxCell>
        <mxCell id="t55zHzIVMXnwhdZF8sP2-192" value="" style="endArrow=none;html=1;startArrow=oval;startFill=0;strokeColor=#5e5e5e;entryX=0;entryY=0.288;entryDx=0;entryDy=0;entryPerimeter=0;" parent="1" edge="1">
          <mxGeometry width="50" height="50" relative="1" as="geometry">
            <mxPoint x="1653.97" y="965.77" as="sourcePoint" />
            <mxPoint x="1699.6200000000006" y="966.0579999999991" as="targetPoint" />
          </mxGeometry>
        </mxCell>
        <mxCell id="t55zHzIVMXnwhdZF8sP2-193" value="dataIscrizione" style="edgeLabel;html=1;align=center;verticalAlign=middle;resizable=0;points=[];fontSize=17;fontStyle=1;autosize=0;resizeWidth=0;" parent="t55zHzIVMXnwhdZF8sP2-192" vertex="1" connectable="0">
          <mxGeometry x="-0.4925" relative="1" as="geometry">
            <mxPoint x="-68.96" y="-1.8399999999999999" as="offset" />
          </mxGeometry>
        </mxCell>
        <mxCell id="t55zHzIVMXnwhdZF8sP2-211" style="edgeStyle=none;rounded=0;orthogonalLoop=1;jettySize=auto;html=1;exitX=0.5;exitY=0;exitDx=0;exitDy=0;" parent="1" source="t55zHzIVMXnwhdZF8sP2-31" target="t55zHzIVMXnwhdZF8sP2-31" edge="1">
          <mxGeometry relative="1" as="geometry" />
        </mxCell>
        <UserObject label="" lucidchartObjectId="5Z11uqkwDgph" id="t55zHzIVMXnwhdZF8sP2-212">
          <mxCell style="html=1;jettySize=18;whiteSpace=wrap;fontSize=11;strokeColor=#5E5E5E;rounded=1;arcSize=12;edgeStyle=orthogonalEdgeStyle;startArrow=none;;endArrow=oval;endFill=1;;exitX=0.75;exitY=1;exitDx=0;exitDy=0;" parent="1" source="t55zHzIVMXnwhdZF8sP2-34" edge="1">
            <mxGeometry width="100" height="100" relative="1" as="geometry">
              <Array as="points">
                <mxPoint x="989.1200000000001" y="1052.75" />
                <mxPoint x="864.1200000000001" y="1052.75" />
                <mxPoint x="864.1200000000001" y="892.75" />
              </Array>
              <mxPoint x="989.1800000000001" y="892.9999999999995" as="targetPoint" />
              <mxPoint x="1023.94" y="1012.6900000000005" as="sourcePoint" />
            </mxGeometry>
          </mxCell>
        </UserObject>
        <UserObject label="" lucidchartObjectId="5Z11uqkwDgph" id="t55zHzIVMXnwhdZF8sP2-213">
          <mxCell style="html=1;jettySize=18;whiteSpace=wrap;fontSize=11;strokeColor=#5E5E5E;rounded=1;arcSize=12;edgeStyle=orthogonalEdgeStyle;startArrow=none;;endArrow=oval;endFill=1;;" parent="1" edge="1">
            <mxGeometry width="100" height="100" relative="1" as="geometry">
              <Array as="points">
                <mxPoint x="1090" y="470" />
                <mxPoint x="1282" y="470" />
              </Array>
              <mxPoint x="1282" y="580" as="targetPoint" />
              <mxPoint x="1090" y="530" as="sourcePoint" />
            </mxGeometry>
          </mxCell>
        </UserObject>
        <mxCell id="t55zHzIVMXnwhdZF8sP2-214" value="" style="endArrow=none;html=1;startArrow=oval;startFill=1;strokeColor=#5e5e5e;entryX=0.003;entryY=0.092;entryDx=0;entryDy=0;entryPerimeter=0;" parent="1" edge="1">
          <mxGeometry width="50" height="50" relative="1" as="geometry">
            <mxPoint x="1067.0500000000009" y="520" as="sourcePoint" />
            <mxPoint x="1113.117" y="520.0720000000001" as="targetPoint" />
          </mxGeometry>
        </mxCell>
        <mxCell id="t55zHzIVMXnwhdZF8sP2-215" value="dataBan" style="edgeLabel;html=1;align=center;verticalAlign=middle;resizable=0;points=[];fontSize=17;fontStyle=1;autosize=0;resizeWidth=0;" parent="t55zHzIVMXnwhdZF8sP2-214" vertex="1" connectable="0">
          <mxGeometry x="-0.4925" relative="1" as="geometry">
            <mxPoint x="-67.22" y="-2" as="offset" />
          </mxGeometry>
        </mxCell>
        <mxCell id="t55zHzIVMXnwhdZF8sP2-216" value="" style="endArrow=none;html=1;startArrow=oval;startFill=0;strokeColor=#5e5e5e;entryX=0.004;entryY=0.485;entryDx=0;entryDy=0;entryPerimeter=0;" parent="1" edge="1">
          <mxGeometry width="50" height="50" relative="1" as="geometry">
            <mxPoint x="1067.2300000000012" y="560.1500000000001" as="sourcePoint" />
            <mxPoint x="1113.1159999999998" y="560" as="targetPoint" />
          </mxGeometry>
        </mxCell>
        <mxCell id="t55zHzIVMXnwhdZF8sP2-217" value="motivo" style="edgeLabel;html=1;align=center;verticalAlign=middle;resizable=0;points=[];fontSize=17;fontStyle=1;autosize=0;resizeWidth=0;" parent="t55zHzIVMXnwhdZF8sP2-216" vertex="1" connectable="0">
          <mxGeometry x="-0.4925" relative="1" as="geometry">
            <mxPoint x="-66.22" y="-2" as="offset" />
          </mxGeometry>
        </mxCell>
        <mxCell id="t55zHzIVMXnwhdZF8sP2-218" value="" style="endArrow=none;html=1;startArrow=oval;startFill=0;strokeColor=#5e5e5e;entryX=0;entryY=0.288;entryDx=0;entryDy=0;entryPerimeter=0;" parent="1" edge="1">
          <mxGeometry width="50" height="50" relative="1" as="geometry">
            <mxPoint x="1066.9099999999996" y="539.48" as="sourcePoint" />
            <mxPoint x="1112.5600000000002" y="539.7679999999991" as="targetPoint" />
          </mxGeometry>
        </mxCell>
        <mxCell id="t55zHzIVMXnwhdZF8sP2-219" value="scadenza" style="edgeLabel;html=1;align=center;verticalAlign=middle;resizable=0;points=[];fontSize=17;fontStyle=1;autosize=0;resizeWidth=0;" parent="t55zHzIVMXnwhdZF8sP2-218" vertex="1" connectable="0">
          <mxGeometry x="-0.4925" relative="1" as="geometry">
            <mxPoint x="-68.22" y="-2" as="offset" />
          </mxGeometry>
        </mxCell>
        <UserObject label="" lucidchartObjectId="5Z11uqkwDgph" id="t55zHzIVMXnwhdZF8sP2-220">
          <mxCell style="html=1;jettySize=18;whiteSpace=wrap;fontSize=11;strokeColor=#5E5E5E;rounded=1;arcSize=12;edgeStyle=orthogonalEdgeStyle;startArrow=none;;endArrow=oval;endFill=1;;exitX=0.5;exitY=0;exitDx=0;exitDy=0;" parent="1" source="t55zHzIVMXnwhdZF8sP2-30" edge="1">
            <mxGeometry width="100" height="100" relative="1" as="geometry">
              <Array as="points">
                <mxPoint x="3072.0000000000005" y="779" />
                <mxPoint x="2980.0000000000005" y="779" />
                <mxPoint x="2980.0000000000005" y="864" />
              </Array>
              <mxPoint x="2980.0000000000005" y="864" as="targetPoint" />
              <mxPoint x="3129.8500000000004" y="863.4700000000003" as="sourcePoint" />
            </mxGeometry>
          </mxCell>
        </UserObject>
        <mxCell id="t55zHzIVMXnwhdZF8sP2-226" value="" style="endArrow=none;html=1;startArrow=oval;startFill=0;strokeColor=#5e5e5e;entryX=0.004;entryY=0.485;entryDx=0;entryDy=0;entryPerimeter=0;" parent="1" edge="1">
          <mxGeometry width="50" height="50" relative="1" as="geometry">
            <mxPoint x="1654.2900000000006" y="1006.9100000000001" as="sourcePoint" />
            <mxPoint x="1700.1760000000002" y="1006.76" as="targetPoint" />
          </mxGeometry>
        </mxCell>
        <mxCell id="t55zHzIVMXnwhdZF8sP2-227" value="isDeleted" style="edgeLabel;html=1;align=center;verticalAlign=middle;resizable=0;points=[];fontSize=17;fontStyle=1;autosize=0;resizeWidth=0;" parent="t55zHzIVMXnwhdZF8sP2-226" vertex="1" connectable="0">
          <mxGeometry x="-0.4925" relative="1" as="geometry">
            <mxPoint x="-68.22" y="-2" as="offset" />
          </mxGeometry>
        </mxCell>
        <mxCell id="t55zHzIVMXnwhdZF8sP2-228" value="" style="endArrow=oval;html=1;startArrow=none;startFill=0;strokeColor=#5e5e5e;strokeWidth=1;endFill=0;" parent="1" edge="1">
          <mxGeometry width="50" height="50" relative="1" as="geometry">
            <mxPoint x="2500.1800000000003" y="928.16" as="sourcePoint" />
            <mxPoint x="2546.1800000000003" y="928.16" as="targetPoint" />
            <Array as="points">
              <mxPoint x="2514.1800000000003" y="928.16" />
            </Array>
          </mxGeometry>
        </mxCell>
        <mxCell id="t55zHzIVMXnwhdZF8sP2-229" value="&lt;font style=&quot;font-size: 17px;&quot;&gt;isDeleted&lt;/font&gt;" style="edgeLabel;html=1;align=center;verticalAlign=middle;resizable=0;points=[];fontSize=17;fontStyle=1;autosize=0;resizeWidth=0;" parent="t55zHzIVMXnwhdZF8sP2-228" vertex="1" connectable="0">
          <mxGeometry x="-0.4925" relative="1" as="geometry">
            <mxPoint x="102.33000000000001" y="-1.02" as="offset" />
          </mxGeometry>
        </mxCell>
        <mxCell id="t55zHzIVMXnwhdZF8sP2-230" value="" style="endArrow=oval;html=1;startArrow=none;startFill=0;strokeColor=#5e5e5e;strokeWidth=1;endFill=0;" parent="1" edge="1">
          <mxGeometry width="50" height="50" relative="1" as="geometry">
            <mxPoint x="2288.8700000000003" y="1321.0199999999998" as="sourcePoint" />
            <mxPoint x="2334.8700000000003" y="1321.0199999999998" as="targetPoint" />
            <Array as="points">
              <mxPoint x="2302.8700000000003" y="1321.02" />
            </Array>
          </mxGeometry>
        </mxCell>
        <mxCell id="t55zHzIVMXnwhdZF8sP2-231" value="&lt;font style=&quot;font-size: 17px;&quot;&gt;isDeleted&lt;/font&gt;" style="edgeLabel;html=1;align=center;verticalAlign=middle;resizable=0;points=[];fontSize=17;fontStyle=1;autosize=0;resizeWidth=0;" parent="t55zHzIVMXnwhdZF8sP2-230" vertex="1" connectable="0">
          <mxGeometry x="-0.4925" relative="1" as="geometry">
            <mxPoint x="102.33000000000001" y="-1.02" as="offset" />
          </mxGeometry>
        </mxCell>
        <UserObject label="Prezzo" lucidchartObjectId="5Z11_9Wty6S1" id="t55zHzIVMXnwhdZF8sP2-232">
          <mxCell style="html=1;overflow=block;blockSpacing=1;whiteSpace=wrap;;whiteSpace=wrap;fontSize=27;fontColor=#333333;align=center;spacing=3;strokeColor=#5e5e5e;strokeOpacity=100;fillOpacity=100;rounded=1;absoluteArcSize=1;arcSize=7;fillColor=#ffc374;strokeWidth=2;" parent="1" vertex="1">
            <mxGeometry x="2096.0000000000005" y="1800" width="139" height="126" as="geometry" />
          </mxCell>
        </UserObject>
        <mxCell id="t55zHzIVMXnwhdZF8sP2-233" style="edgeStyle=orthogonalEdgeStyle;rounded=0;orthogonalLoop=1;jettySize=auto;html=1;exitX=0.5;exitY=1;exitDx=0;exitDy=0;strokeColor=#5e5e5e;entryX=0.467;entryY=0;entryDx=0;entryDy=0;entryPerimeter=0;" parent="1" source="t55zHzIVMXnwhdZF8sP2-234" target="t55zHzIVMXnwhdZF8sP2-232" edge="1">
          <mxGeometry relative="1" as="geometry">
            <mxPoint x="2165" y="1800" as="targetPoint" />
          </mxGeometry>
        </mxCell>
        <mxCell id="t55zHzIVMXnwhdZF8sP2-240" style="rounded=0;orthogonalLoop=1;jettySize=auto;html=1;exitX=0.5;exitY=0;exitDx=0;exitDy=0;fontColor=#0000FF;strokeColor=#5e5e5e;entryX=0.1;entryY=1.002;entryDx=0;entryDy=0;entryPerimeter=0;" parent="1" source="t55zHzIVMXnwhdZF8sP2-234" target="t55zHzIVMXnwhdZF8sP2-53" edge="1">
          <mxGeometry relative="1" as="geometry">
            <mxPoint x="2163" y="1630" as="targetPoint" />
          </mxGeometry>
        </mxCell>
        <UserObject label="Contiene" lucidchartObjectId="5Z11iGa5ESLG" id="t55zHzIVMXnwhdZF8sP2-234">
          <mxCell style="html=1;overflow=block;blockSpacing=1;whiteSpace=wrap;rhombus;whiteSpace=wrap;fontSize=19;fontColor=#333333;align=center;spacing=3;strokeColor=#5e5e5e;strokeOpacity=100;fillOpacity=100;rounded=1;absoluteArcSize=1;arcSize=7;fillColor=#ffeca9;strokeWidth=2;" parent="1" vertex="1">
            <mxGeometry x="2091.0000000000005" y="1670" width="139" height="81" as="geometry" />
          </mxCell>
        </UserObject>
        <UserObject label="(0,N)" lucidchartObjectId="5Z112gDtx1PO" id="t55zHzIVMXnwhdZF8sP2-235">
          <mxCell style="html=1;overflow=block;blockSpacing=1;whiteSpace=wrap;strokeColor=none;fillColor=none;whiteSpace=wrap;fontSize=18;fontColor=#333333;align=center;spacing=0;strokeOpacity=100;fillOpacity=100;rounded=1;absoluteArcSize=1;arcSize=7;strokeWidth=2;" parent="1" vertex="1">
            <mxGeometry x="2115.3300000000004" y="1770" width="42" height="25" as="geometry" />
          </mxCell>
        </UserObject>
        <mxCell id="t55zHzIVMXnwhdZF8sP2-236" value="" style="endArrow=oval;html=1;startArrow=none;startFill=0;strokeColor=#5e5e5e;endFill=1;" parent="1" edge="1">
          <mxGeometry width="50" height="50" relative="1" as="geometry">
            <mxPoint x="2235.0000000000005" y="1830" as="sourcePoint" />
            <mxPoint x="2281.0000000000005" y="1830" as="targetPoint" />
          </mxGeometry>
        </mxCell>
        <mxCell id="t55zHzIVMXnwhdZF8sP2-237" value="tipo" style="edgeLabel;html=1;align=center;verticalAlign=middle;resizable=0;points=[];fontSize=17;fontStyle=1;autosize=0;resizeWidth=0;" parent="t55zHzIVMXnwhdZF8sP2-236" vertex="1" connectable="0">
          <mxGeometry x="-0.4925" relative="1" as="geometry">
            <mxPoint x="64.33000000000001" y="-1.02" as="offset" />
          </mxGeometry>
        </mxCell>
        <mxCell id="t55zHzIVMXnwhdZF8sP2-238" value="" style="endArrow=oval;html=1;startArrow=none;startFill=0;strokeColor=#5e5e5e;endFill=0;" parent="1" edge="1">
          <mxGeometry width="50" height="50" relative="1" as="geometry">
            <mxPoint x="2235.1500000000005" y="1870" as="sourcePoint" />
            <mxPoint x="2281.0000000000005" y="1870" as="targetPoint" />
          </mxGeometry>
        </mxCell>
        <mxCell id="t55zHzIVMXnwhdZF8sP2-239" value="costo" style="edgeLabel;html=1;align=center;verticalAlign=middle;resizable=0;points=[];fontSize=17;fontStyle=1;autosize=0;resizeWidth=0;" parent="t55zHzIVMXnwhdZF8sP2-238" vertex="1" connectable="0">
          <mxGeometry x="-0.4925" relative="1" as="geometry">
            <mxPoint x="63.33000000000001" y="-1.02" as="offset" />
          </mxGeometry>
        </mxCell>
        <mxCell id="t55zHzIVMXnwhdZF8sP2-241" value="" style="endArrow=oval;html=1;startArrow=none;startFill=0;strokeColor=#5e5e5e;strokeWidth=1;endFill=0;" parent="1" edge="1">
          <mxGeometry width="50" height="50" relative="1" as="geometry">
            <mxPoint x="2087.1800000000003" y="936" as="sourcePoint" />
            <mxPoint x="2113.6800000000003" y="956" as="targetPoint" />
          </mxGeometry>
        </mxCell>
        <mxCell id="t55zHzIVMXnwhdZF8sP2-242" value="valore" style="edgeLabel;html=1;align=center;verticalAlign=middle;resizable=0;points=[];fontSize=17;fontStyle=1;autosize=0;resizeWidth=0;" parent="t55zHzIVMXnwhdZF8sP2-241" vertex="1" connectable="0">
          <mxGeometry x="-0.4925" relative="1" as="geometry">
            <mxPoint x="39.88000000000002" y="28.68" as="offset" />
          </mxGeometry>
        </mxCell>
        <mxCell id="t55zHzIVMXnwhdZF8sP2-243" value="" style="endArrow=oval;html=1;startArrow=none;startFill=0;strokeColor=#5e5e5e;strokeWidth=1;endFill=0;exitX=0.701;exitY=0.222;exitDx=0;exitDy=0;exitPerimeter=0;" parent="1" edge="1">
          <mxGeometry width="50" height="50" relative="1" as="geometry">
            <mxPoint x="2055.3700000000003" y="1214.984" as="sourcePoint" />
            <mxPoint x="2087.1800000000003" y="1195" as="targetPoint" />
          </mxGeometry>
        </mxCell>
        <mxCell id="t55zHzIVMXnwhdZF8sP2-244" value="valore" style="edgeLabel;html=1;align=center;verticalAlign=middle;resizable=0;points=[];fontSize=17;fontStyle=1;autosize=0;resizeWidth=0;" parent="t55zHzIVMXnwhdZF8sP2-243" vertex="1" connectable="0">
          <mxGeometry x="-0.4925" relative="1" as="geometry">
            <mxPoint x="59.750000000000014" y="-29.919999999999995" as="offset" />
          </mxGeometry>
        </mxCell>
        <mxCell id="t55zHzIVMXnwhdZF8sP2-245" value="" style="endArrow=oval;html=1;startArrow=none;startFill=0;strokeColor=#5e5e5e;endFill=0;" parent="1" edge="1">
          <mxGeometry width="50" height="50" relative="1" as="geometry">
            <mxPoint x="3141.0000000000005" y="882.4000000000003" as="sourcePoint" />
            <mxPoint x="3186.9999999999995" y="882.2500000000002" as="targetPoint" />
          </mxGeometry>
        </mxCell>
        <mxCell id="t55zHzIVMXnwhdZF8sP2-246" value="tipo" style="edgeLabel;html=1;align=center;verticalAlign=middle;resizable=0;points=[];fontSize=17;fontStyle=1;autosize=0;resizeWidth=0;" parent="t55zHzIVMXnwhdZF8sP2-245" vertex="1" connectable="0">
          <mxGeometry x="-0.4925" relative="1" as="geometry">
            <mxPoint x="103.33000000000001" y="-1.02" as="offset" />
          </mxGeometry>
        </mxCell>
        <mxCell id="t55zHzIVMXnwhdZF8sP2-247" value="" style="endArrow=oval;html=1;startArrow=none;startFill=0;strokeColor=#5e5e5e;endFill=0;" parent="1" edge="1">
          <mxGeometry width="50" height="50" relative="1" as="geometry">
            <mxPoint x="3141.0000000000005" y="902.1600000000001" as="sourcePoint" />
            <mxPoint x="3186.9999999999995" y="902.2500000000002" as="targetPoint" />
          </mxGeometry>
        </mxCell>
        <mxCell id="t55zHzIVMXnwhdZF8sP2-248" value="tag" style="edgeLabel;html=1;align=center;verticalAlign=middle;resizable=0;points=[];fontSize=17;fontStyle=1;autosize=0;resizeWidth=0;" parent="t55zHzIVMXnwhdZF8sP2-247" vertex="1" connectable="0">
          <mxGeometry x="-0.4925" relative="1" as="geometry">
            <mxPoint x="103.33000000000001" y="-1.02" as="offset" />
          </mxGeometry>
        </mxCell>
        <mxCell id="t55zHzIVMXnwhdZF8sP2-251" value="" style="endArrow=oval;html=1;startArrow=none;startFill=0;strokeColor=#5e5e5e;strokeWidth=1;endFill=0;" parent="1" edge="1">
          <mxGeometry width="50" height="50" relative="1" as="geometry">
            <mxPoint x="2490" y="931" as="sourcePoint" />
            <mxPoint x="2490" y="980" as="targetPoint" />
            <Array as="points" />
          </mxGeometry>
        </mxCell>
        <mxCell id="t55zHzIVMXnwhdZF8sP2-252" value="numeroVoti" style="edgeLabel;html=1;align=center;verticalAlign=middle;resizable=0;points=[];fontSize=17;fontStyle=1;autosize=0;resizeWidth=0;" parent="t55zHzIVMXnwhdZF8sP2-251" vertex="1" connectable="0">
          <mxGeometry x="-0.4925" relative="1" as="geometry">
            <mxPoint x="1.4210854715202004e-14" y="49.169999999999995" as="offset" />
          </mxGeometry>
        </mxCell>
        <mxCell id="t55zHzIVMXnwhdZF8sP2-253" value="" style="endArrow=oval;html=1;startArrow=none;startFill=0;strokeColor=#5e5e5e;strokeWidth=1;endFill=0;" parent="1" edge="1">
          <mxGeometry width="50" height="50" relative="1" as="geometry">
            <mxPoint x="2288.18" y="1340.9999999999998" as="sourcePoint" />
            <mxPoint x="2334.1800000000003" y="1340.9999999999998" as="targetPoint" />
            <Array as="points">
              <mxPoint x="2302.1800000000003" y="1341" />
            </Array>
          </mxGeometry>
        </mxCell>
        <mxCell id="t55zHzIVMXnwhdZF8sP2-254" value="&lt;font style=&quot;font-size: 17px;&quot;&gt;votiCommento&lt;/font&gt;" style="edgeLabel;html=1;align=center;verticalAlign=middle;resizable=0;points=[];fontSize=17;fontStyle=1;autosize=0;resizeWidth=0;" parent="t55zHzIVMXnwhdZF8sP2-253" vertex="1" connectable="0">
          <mxGeometry x="-0.4925" relative="1" as="geometry">
            <mxPoint x="102.33000000000001" y="-1.02" as="offset" />
          </mxGeometry>
        </mxCell>
      </root>
    </mxGraphModel>
  </diagram>
</mxfile>
